<svg width="257" height="78" viewBox="0 0 257 78" fill="none" xmlns="http://www.w3.org/2000/svg">
<circle cx="39" cy="39" r="39" fill="white"/>
<path d="M115.362 16.666V18.294H108.696V23.464H114.108V25.092H108.696V32H106.694V16.666H115.362ZM125.854 32L122.202 25.73H119.782V32H117.78V16.666H122.73C123.889 16.666 124.864 16.864 125.656 17.26C126.463 17.656 127.064 18.1913 127.46 18.866C127.856 19.5407 128.054 20.3107 128.054 21.176C128.054 22.232 127.746 23.1633 127.13 23.97C126.529 24.7767 125.619 25.312 124.402 25.576L128.252 32H125.854ZM119.782 24.124H122.73C123.815 24.124 124.629 23.86 125.172 23.332C125.715 22.7893 125.986 22.0707 125.986 21.176C125.986 20.2667 125.715 19.5627 125.172 19.064C124.644 18.5653 123.83 18.316 122.73 18.316H119.782V24.124ZM133.167 18.294V23.42H138.755V25.07H133.167V30.35H139.415V32H131.165V16.644H139.415V18.294H133.167ZM144.446 18.294V23.42H150.034V25.07H144.446V30.35H150.694V32H142.444V16.644H150.694V18.294H144.446ZM164.451 32.154C163.439 32.154 162.529 31.978 161.723 31.626C160.931 31.2593 160.307 30.7607 159.853 30.13C159.398 29.4847 159.163 28.744 159.149 27.908H161.283C161.356 28.6267 161.649 29.2353 162.163 29.734C162.691 30.218 163.453 30.46 164.451 30.46C165.404 30.46 166.152 30.2253 166.695 29.756C167.252 29.272 167.531 28.656 167.531 27.908C167.531 27.3213 167.369 26.8447 167.047 26.478C166.724 26.1113 166.321 25.8327 165.837 25.642C165.353 25.4513 164.7 25.246 163.879 25.026C162.867 24.762 162.053 24.498 161.437 24.234C160.835 23.97 160.315 23.5593 159.875 23.002C159.449 22.43 159.237 21.6673 159.237 20.714C159.237 19.878 159.449 19.1373 159.875 18.492C160.3 17.8467 160.894 17.348 161.657 16.996C162.434 16.644 163.321 16.468 164.319 16.468C165.756 16.468 166.929 16.8273 167.839 17.546C168.763 18.2647 169.283 19.218 169.401 20.406H167.201C167.127 19.8193 166.819 19.306 166.277 18.866C165.734 18.4113 165.015 18.184 164.121 18.184C163.285 18.184 162.603 18.404 162.075 18.844C161.547 19.2693 161.283 19.8707 161.283 20.648C161.283 21.2053 161.437 21.66 161.745 22.012C162.067 22.364 162.456 22.6353 162.911 22.826C163.38 23.002 164.033 23.2073 164.869 23.442C165.881 23.7207 166.695 23.9993 167.311 24.278C167.927 24.542 168.455 24.96 168.895 25.532C169.335 26.0893 169.555 26.852 169.555 27.82C169.555 28.568 169.357 29.272 168.961 29.932C168.565 30.592 167.978 31.1273 167.201 31.538C166.423 31.9487 165.507 32.154 164.451 32.154ZM184.315 16.666V32H182.313V25.048H174.503V32H172.501V16.666H174.503V23.398H182.313V16.666H184.315ZM189.735 16.666V32H187.733V16.666H189.735ZM203.399 21.154C203.399 22.43 202.959 23.4933 202.079 24.344C201.214 25.18 199.886 25.598 198.097 25.598H195.149V32H193.147V16.666H198.097C199.828 16.666 201.14 17.084 202.035 17.92C202.944 18.756 203.399 19.834 203.399 21.154ZM198.097 23.948C199.212 23.948 200.033 23.706 200.561 23.222C201.089 22.738 201.353 22.0487 201.353 21.154C201.353 19.262 200.268 18.316 198.097 18.316H195.149V23.948H198.097ZM216.139 21.154C216.139 22.43 215.699 23.4933 214.819 24.344C213.954 25.18 212.627 25.598 210.837 25.598H207.889V32H205.887V16.666H210.837C212.568 16.666 213.881 17.084 214.775 17.92C215.685 18.756 216.139 19.834 216.139 21.154ZM210.837 23.948C211.952 23.948 212.773 23.706 213.301 23.222C213.829 22.738 214.093 22.0487 214.093 21.154C214.093 19.262 213.008 18.316 210.837 18.316H207.889V23.948H210.837ZM220.63 16.666V32H218.628V16.666H220.63ZM236.098 32H234.096L226.044 19.79V32H224.042V16.644H226.044L234.096 28.832V16.644H236.098V32ZM251.126 21.11C250.701 20.2153 250.085 19.526 249.278 19.042C248.472 18.5433 247.533 18.294 246.462 18.294C245.392 18.294 244.424 18.5433 243.558 19.042C242.708 19.526 242.033 20.23 241.534 21.154C241.05 22.0633 240.808 23.1193 240.808 24.322C240.808 25.5247 241.05 26.5807 241.534 27.49C242.033 28.3993 242.708 29.1033 243.558 29.602C244.424 30.086 245.392 30.328 246.462 30.328C247.958 30.328 249.19 29.8807 250.158 28.986C251.126 28.0913 251.691 26.8813 251.852 25.356H245.736V23.728H253.986V25.268C253.869 26.5293 253.473 27.688 252.798 28.744C252.124 29.7853 251.236 30.614 250.136 31.23C249.036 31.8313 247.812 32.132 246.462 32.132C245.04 32.132 243.742 31.802 242.568 31.142C241.395 30.4673 240.464 29.536 239.774 28.348C239.1 27.16 238.762 25.818 238.762 24.322C238.762 22.826 239.1 21.484 239.774 20.296C240.464 19.0933 241.395 18.162 242.568 17.502C243.742 16.8273 245.04 16.49 246.462 16.49C248.09 16.49 249.528 16.8933 250.774 17.7C252.036 18.5067 252.952 19.6433 253.524 21.11H251.126Z" fill="white"/>
<path d="M120.248 48.848L117.016 60H115.384L112.792 51.024L110.104 60L108.488 60.016L105.368 48.848H106.92L109.352 58.304L112.04 48.848H113.672L116.232 58.272L118.68 48.848H120.248ZM125.665 60.144C124.844 60.144 124.097 59.9573 123.425 59.584C122.764 59.2107 122.241 58.6827 121.857 58C121.484 57.3067 121.297 56.5067 121.297 55.6C121.297 54.704 121.489 53.9147 121.873 53.232C122.268 52.5387 122.801 52.0107 123.473 51.648C124.145 51.2747 124.897 51.088 125.729 51.088C126.561 51.088 127.313 51.2747 127.985 51.648C128.657 52.0107 129.185 52.5333 129.569 53.216C129.964 53.8987 130.161 54.6933 130.161 55.6C130.161 56.5067 129.959 57.3067 129.553 58C129.159 58.6827 128.62 59.2107 127.937 59.584C127.255 59.9573 126.497 60.144 125.665 60.144ZM125.665 58.864C126.188 58.864 126.679 58.7413 127.137 58.496C127.596 58.2507 127.964 57.8827 128.241 57.392C128.529 56.9013 128.673 56.304 128.673 55.6C128.673 54.896 128.535 54.2987 128.257 53.808C127.98 53.3173 127.617 52.9547 127.169 52.72C126.721 52.4747 126.236 52.352 125.713 52.352C125.18 52.352 124.689 52.4747 124.241 52.72C123.804 52.9547 123.452 53.3173 123.185 53.808C122.919 54.2987 122.785 54.896 122.785 55.6C122.785 56.3147 122.913 56.9173 123.169 57.408C123.436 57.8987 123.788 58.2667 124.225 58.512C124.663 58.7467 125.143 58.864 125.665 58.864ZM133.532 52.656C133.788 52.1547 134.15 51.7653 134.62 51.488C135.1 51.2107 135.681 51.072 136.364 51.072V52.576H135.98C134.348 52.576 133.532 53.4613 133.532 55.232V60H132.076V51.232H133.532V52.656ZM139.501 48.16V60H138.045V48.16H139.501ZM141.438 55.584C141.438 54.688 141.619 53.904 141.982 53.232C142.345 52.5493 142.841 52.0213 143.47 51.648C144.11 51.2747 144.825 51.088 145.614 51.088C146.297 51.088 146.931 51.248 147.518 51.568C148.105 51.8773 148.553 52.288 148.862 52.8V48.16H150.334V60H148.862V58.352C148.574 58.8747 148.147 59.3067 147.582 59.648C147.017 59.9787 146.355 60.144 145.598 60.144C144.819 60.144 144.11 59.952 143.47 59.568C142.841 59.184 142.345 58.6453 141.982 57.952C141.619 57.2587 141.438 56.4693 141.438 55.584ZM148.862 55.6C148.862 54.9387 148.729 54.3627 148.462 53.872C148.195 53.3813 147.833 53.008 147.374 52.752C146.926 52.4853 146.43 52.352 145.886 52.352C145.342 52.352 144.846 52.48 144.398 52.736C143.95 52.992 143.593 53.3653 143.326 53.856C143.059 54.3467 142.926 54.9227 142.926 55.584C142.926 56.256 143.059 56.8427 143.326 57.344C143.593 57.8347 143.95 58.2133 144.398 58.48C144.846 58.736 145.342 58.864 145.886 58.864C146.43 58.864 146.926 58.736 147.374 58.48C147.833 58.2133 148.195 57.8347 148.462 57.344C148.729 56.8427 148.862 56.2613 148.862 55.6ZM164.475 51.232L161.739 60H160.235L158.123 53.04L156.011 60H154.507L151.755 51.232H153.243L155.259 58.592L157.435 51.232H158.923L161.051 58.608L163.035 51.232H164.475ZM166.672 49.808C166.394 49.808 166.16 49.712 165.968 49.52C165.776 49.328 165.68 49.0933 165.68 48.816C165.68 48.5387 165.776 48.304 165.968 48.112C166.16 47.92 166.394 47.824 166.672 47.824C166.938 47.824 167.162 47.92 167.344 48.112C167.536 48.304 167.632 48.5387 167.632 48.816C167.632 49.0933 167.536 49.328 167.344 49.52C167.162 49.712 166.938 49.808 166.672 49.808ZM167.376 51.232V60H165.92V51.232H167.376ZM169.313 55.584C169.313 54.688 169.494 53.904 169.857 53.232C170.22 52.5493 170.716 52.0213 171.345 51.648C171.985 51.2747 172.7 51.088 173.489 51.088C174.172 51.088 174.806 51.248 175.393 51.568C175.98 51.8773 176.428 52.288 176.737 52.8V48.16H178.209V60H176.737V58.352C176.449 58.8747 176.022 59.3067 175.457 59.648C174.892 59.9787 174.23 60.144 173.473 60.144C172.694 60.144 171.985 59.952 171.345 59.568C170.716 59.184 170.22 58.6453 169.857 57.952C169.494 57.2587 169.313 56.4693 169.313 55.584ZM176.737 55.6C176.737 54.9387 176.604 54.3627 176.337 53.872C176.07 53.3813 175.708 53.008 175.249 52.752C174.801 52.4853 174.305 52.352 173.761 52.352C173.217 52.352 172.721 52.48 172.273 52.736C171.825 52.992 171.468 53.3653 171.201 53.856C170.934 54.3467 170.801 54.9227 170.801 55.584C170.801 56.256 170.934 56.8427 171.201 57.344C171.468 57.8347 171.825 58.2133 172.273 58.48C172.721 58.736 173.217 58.864 173.761 58.864C174.305 58.864 174.801 58.736 175.249 58.48C175.708 58.2133 176.07 57.8347 176.337 57.344C176.604 56.8427 176.737 56.2613 176.737 55.6ZM188.67 55.28C188.67 55.5573 188.654 55.8507 188.622 56.16H181.614C181.667 57.024 181.96 57.7013 182.494 58.192C183.038 58.672 183.694 58.912 184.462 58.912C185.091 58.912 185.614 58.768 186.03 58.48C186.456 58.1813 186.755 57.7867 186.926 57.296H188.494C188.259 58.1387 187.79 58.8267 187.086 59.36C186.382 59.8827 185.507 60.144 184.462 60.144C183.63 60.144 182.883 59.9573 182.222 59.584C181.571 59.2107 181.059 58.6827 180.686 58C180.312 57.3067 180.126 56.5067 180.126 55.6C180.126 54.6933 180.307 53.8987 180.67 53.216C181.032 52.5333 181.539 52.0107 182.19 51.648C182.851 51.2747 183.608 51.088 184.462 51.088C185.294 51.088 186.03 51.2693 186.67 51.632C187.31 51.9947 187.8 52.496 188.142 53.136C188.494 53.7653 188.67 54.48 188.67 55.28ZM187.166 54.976C187.166 54.4213 187.043 53.9467 186.798 53.552C186.552 53.1467 186.216 52.8427 185.79 52.64C185.374 52.4267 184.91 52.32 184.398 52.32C183.662 52.32 183.032 52.5547 182.51 53.024C181.998 53.4933 181.704 54.144 181.63 54.976H187.166ZM198.329 48.848C199.545 48.848 200.596 49.0773 201.481 49.536C202.377 49.984 203.06 50.6293 203.529 51.472C204.009 52.3147 204.249 53.3067 204.249 54.448C204.249 55.5893 204.009 56.5813 203.529 57.424C203.06 58.256 202.377 58.896 201.481 59.344C200.596 59.7813 199.545 60 198.329 60H194.857V48.848H198.329ZM198.329 58.8C199.769 58.8 200.868 58.4213 201.625 57.664C202.382 56.896 202.761 55.824 202.761 54.448C202.761 53.0613 202.377 51.9787 201.609 51.2C200.852 50.4213 199.758 50.032 198.329 50.032H196.313V58.8H198.329ZM214.17 55.28C214.17 55.5573 214.154 55.8507 214.122 56.16H207.114C207.167 57.024 207.46 57.7013 207.994 58.192C208.538 58.672 209.194 58.912 209.962 58.912C210.591 58.912 211.114 58.768 211.53 58.48C211.956 58.1813 212.255 57.7867 212.426 57.296H213.994C213.759 58.1387 213.29 58.8267 212.586 59.36C211.882 59.8827 211.007 60.144 209.962 60.144C209.13 60.144 208.383 59.9573 207.722 59.584C207.071 59.2107 206.559 58.6827 206.186 58C205.812 57.3067 205.626 56.5067 205.626 55.6C205.626 54.6933 205.807 53.8987 206.17 53.216C206.532 52.5333 207.039 52.0107 207.69 51.648C208.351 51.2747 209.108 51.088 209.962 51.088C210.794 51.088 211.53 51.2693 212.17 51.632C212.81 51.9947 213.3 52.496 213.642 53.136C213.994 53.7653 214.17 54.48 214.17 55.28ZM212.666 54.976C212.666 54.4213 212.543 53.9467 212.298 53.552C212.052 53.1467 211.716 52.8427 211.29 52.64C210.874 52.4267 210.41 52.32 209.898 52.32C209.162 52.32 208.532 52.5547 208.01 53.024C207.498 53.4933 207.204 54.144 207.13 54.976H212.666ZM217.547 48.16V60H216.091V48.16H217.547ZM220.781 49.808C220.504 49.808 220.269 49.712 220.077 49.52C219.885 49.328 219.789 49.0933 219.789 48.816C219.789 48.5387 219.885 48.304 220.077 48.112C220.269 47.92 220.504 47.824 220.781 47.824C221.048 47.824 221.272 47.92 221.453 48.112C221.645 48.304 221.741 48.5387 221.741 48.816C221.741 49.0933 221.645 49.328 221.453 49.52C221.272 49.712 221.048 49.808 220.781 49.808ZM221.485 51.232V60H220.029V51.232H221.485ZM227.23 58.656L229.95 51.232H231.502L228.062 60H226.366L222.926 51.232H224.494L227.23 58.656ZM240.935 55.28C240.935 55.5573 240.919 55.8507 240.887 56.16H233.879C233.932 57.024 234.226 57.7013 234.759 58.192C235.303 58.672 235.959 58.912 236.727 58.912C237.356 58.912 237.879 58.768 238.295 58.48C238.722 58.1813 239.02 57.7867 239.191 57.296H240.759C240.524 58.1387 240.055 58.8267 239.351 59.36C238.647 59.8827 237.772 60.144 236.727 60.144C235.895 60.144 235.148 59.9573 234.487 59.584C233.836 59.2107 233.324 58.6827 232.951 58C232.578 57.3067 232.391 56.5067 232.391 55.6C232.391 54.6933 232.572 53.8987 232.935 53.216C233.298 52.5333 233.804 52.0107 234.455 51.648C235.116 51.2747 235.874 51.088 236.727 51.088C237.559 51.088 238.295 51.2693 238.935 51.632C239.575 51.9947 240.066 52.496 240.407 53.136C240.759 53.7653 240.935 54.48 240.935 55.28ZM239.431 54.976C239.431 54.4213 239.308 53.9467 239.063 53.552C238.818 53.1467 238.482 52.8427 238.055 52.64C237.639 52.4267 237.175 52.32 236.663 52.32C235.927 52.32 235.298 52.5547 234.775 53.024C234.263 53.4933 233.97 54.144 233.895 54.976H239.431ZM244.313 52.656C244.569 52.1547 244.932 51.7653 245.401 51.488C245.881 51.2107 246.462 51.072 247.145 51.072V52.576H246.761C245.129 52.576 244.313 53.4613 244.313 55.232V60H242.857V51.232H244.313V52.656ZM256.378 51.232L251.098 64.128H249.594L251.322 59.904L247.786 51.232H249.402L252.154 58.336L254.874 51.232H256.378Z" fill="white"/>
<g clip-path="url(#clip0_14_935)">
<path d="M29.5625 50.875H26.3125C25.864 50.875 25.5 50.511 25.5 50.0625C25.5 49.614 25.864 49.25 26.3125 49.25H29.5625C30.011 49.25 30.375 49.614 30.375 50.0625C30.375 50.511 30.011 50.875 29.5625 50.875Z" fill="black"/>
<path d="M55.9688 50.875H53.9375C53.489 50.875 53.125 50.511 53.125 50.0625C53.125 49.614 53.489 49.25 53.9375 49.25H55.2944L56.3896 43.413C56.375 40.4262 53.8238 37.875 50.6875 37.875H45.3526L42.7673 49.25H47.4375C47.886 49.25 48.25 49.614 48.25 50.0625C48.25 50.511 47.886 50.875 47.4375 50.875H41.75C41.503 50.875 41.269 50.7629 41.1146 50.5695C40.9603 50.3778 40.9018 50.1242 40.957 49.8837L43.9113 36.8838C43.9958 36.5116 44.324 36.25 44.7043 36.25H50.6875C54.7191 36.25 58 39.5309 58 43.5625L56.7666 50.212C56.6951 50.5971 56.3604 50.875 55.9688 50.875Z" fill="black"/>
<path d="M50.6875 54.125C48.4482 54.125 46.625 52.3034 46.625 50.0625C46.625 47.8216 48.4482 46 50.6875 46C52.9268 46 54.75 47.8216 54.75 50.0625C54.75 52.3034 52.9268 54.125 50.6875 54.125ZM50.6875 47.625C49.3436 47.625 48.25 48.7186 48.25 50.0625C48.25 51.4064 49.3436 52.5 50.6875 52.5C52.0314 52.5 53.125 51.4064 53.125 50.0625C53.125 48.7186 52.0314 47.625 50.6875 47.625Z" fill="black"/>
<path d="M32.8125 54.125C30.5732 54.125 28.75 52.3034 28.75 50.0625C28.75 47.8216 30.5732 46 32.8125 46C35.0518 46 36.875 47.8216 36.875 50.0625C36.875 52.3034 35.0518 54.125 32.8125 54.125ZM32.8125 47.625C31.4686 47.625 30.375 48.7186 30.375 50.0625C30.375 51.4064 31.4686 52.5 32.8125 52.5C34.1564 52.5 35.25 51.4064 35.25 50.0625C35.25 48.7186 34.1564 47.625 32.8125 47.625Z" fill="black"/>
<path d="M29.5625 36.25H23.0625C22.614 36.25 22.25 35.886 22.25 35.4375C22.25 34.989 22.614 34.625 23.0625 34.625H29.5625C30.011 34.625 30.375 34.989 30.375 35.4375C30.375 35.886 30.011 36.25 29.5625 36.25Z" fill="black"/>
<path d="M29.5625 41.125H21.4375C20.989 41.125 20.625 40.761 20.625 40.3125C20.625 39.864 20.989 39.5 21.4375 39.5H29.5625C30.011 39.5 30.375 39.864 30.375 40.3125C30.375 40.761 30.011 41.125 29.5625 41.125Z" fill="black"/>
<path d="M29.5625 46H19.8125C19.364 46 19 45.636 19 45.1875C19 44.739 19.364 44.375 19.8125 44.375H29.5625C30.011 44.375 30.375 44.739 30.375 45.1875C30.375 45.636 30.011 46 29.5625 46Z" fill="black"/>
<path d="M41.75 50.875H36.0625C35.614 50.875 35.25 50.511 35.25 50.0625C35.25 49.614 35.614 49.25 36.0625 49.25H41.1016L44.7936 33H26.3125C25.864 33 25.5 32.636 25.5 32.1875C25.5 31.739 25.864 31.375 26.3125 31.375H45.8125C46.0595 31.375 46.2935 31.4871 46.4479 31.6805C46.6023 31.8723 46.6608 32.1258 46.6055 32.3663L42.543 50.2413C42.4585 50.6134 42.1286 50.875 41.75 50.875Z" fill="black"/>
</g>
<defs>
<clipPath id="clip0_14_935">
<rect width="39" height="39" fill="white" transform="translate(19 20)"/>
</clipPath>
</defs>
</svg>
