<svg width="243" height="78" viewBox="0 0 243 78" fill="none" xmlns="http://www.w3.org/2000/svg">
<circle cx="39" cy="39" r="39" fill="white"/>
<path d="M114.768 32L111.116 25.73H108.696V32H106.694V16.666H111.644C112.803 16.666 113.778 16.864 114.57 17.26C115.377 17.656 115.978 18.1913 116.374 18.866C116.77 19.5407 116.968 20.3107 116.968 21.176C116.968 22.232 116.66 23.1633 116.044 23.97C115.443 24.7767 114.533 25.312 113.316 25.576L117.166 32H114.768ZM108.696 24.124H111.644C112.729 24.124 113.543 23.86 114.086 23.332C114.629 22.7893 114.9 22.0707 114.9 21.176C114.9 20.2667 114.629 19.5627 114.086 19.064C113.558 18.5653 112.744 18.316 111.644 18.316H108.696V24.124ZM122.081 18.294V23.42H127.669V25.07H122.081V30.35H128.329V32H120.079V16.644H128.329V18.294H122.081ZM140.796 16.666V18.294H136.616V32H134.614V18.294H130.412V16.666H140.796ZM145.218 16.666V26.368C145.218 27.732 145.548 28.744 146.208 29.404C146.883 30.064 147.814 30.394 149.002 30.394C150.176 30.394 151.092 30.064 151.752 29.404C152.427 28.744 152.764 27.732 152.764 26.368V16.666H154.766V26.346C154.766 27.622 154.51 28.7 153.996 29.58C153.483 30.4453 152.786 31.0907 151.906 31.516C151.041 31.9413 150.066 32.154 148.98 32.154C147.895 32.154 146.912 31.9413 146.032 31.516C145.167 31.0907 144.478 30.4453 143.964 29.58C143.466 28.7 143.216 27.622 143.216 26.346V16.666H145.218ZM166.18 32L162.528 25.73H160.108V32H158.106V16.666H163.056C164.215 16.666 165.19 16.864 165.982 17.26C166.789 17.656 167.39 18.1913 167.786 18.866C168.182 19.5407 168.38 20.3107 168.38 21.176C168.38 22.232 168.072 23.1633 167.456 23.97C166.855 24.7767 165.945 25.312 164.728 25.576L168.578 32H166.18ZM160.108 24.124H163.056C164.141 24.124 164.955 23.86 165.498 23.332C166.041 22.7893 166.312 22.0707 166.312 21.176C166.312 20.2667 166.041 19.5627 165.498 19.064C164.97 18.5653 164.156 18.316 163.056 18.316H160.108V24.124ZM183.547 32H181.545L173.493 19.79V32H171.491V16.644H173.493L181.545 28.832V16.644H183.547V32Z" fill="white"/>
<path d="M107.688 48.848V60H106.232V48.848H107.688ZM114.442 51.072C115.508 51.072 116.372 51.3973 117.034 52.048C117.695 52.688 118.026 53.616 118.026 54.832V60H116.586V55.04C116.586 54.1653 116.367 53.4987 115.93 53.04C115.492 52.5707 114.895 52.336 114.138 52.336C113.37 52.336 112.756 52.576 112.298 53.056C111.85 53.536 111.626 54.2347 111.626 55.152V60H110.17V51.232H111.626V52.48C111.914 52.032 112.303 51.6853 112.794 51.44C113.295 51.1947 113.844 51.072 114.442 51.072ZM123.508 60.144C122.836 60.144 122.233 60.032 121.7 59.808C121.167 59.5733 120.745 59.2533 120.436 58.848C120.127 58.432 119.956 57.9573 119.924 57.424H121.428C121.471 57.8613 121.673 58.2187 122.036 58.496C122.409 58.7733 122.895 58.912 123.492 58.912C124.047 58.912 124.484 58.7893 124.804 58.544C125.124 58.2987 125.284 57.9893 125.284 57.616C125.284 57.232 125.113 56.9493 124.772 56.768C124.431 56.576 123.903 56.3893 123.188 56.208C122.537 56.0373 122.004 55.8667 121.588 55.696C121.183 55.5147 120.831 55.2533 120.532 54.912C120.244 54.56 120.1 54.1013 120.1 53.536C120.1 53.088 120.233 52.6773 120.5 52.304C120.767 51.9307 121.145 51.6373 121.636 51.424C122.127 51.2 122.687 51.088 123.316 51.088C124.287 51.088 125.071 51.3333 125.668 51.824C126.265 52.3147 126.585 52.9867 126.628 53.84H125.172C125.14 53.3813 124.953 53.0133 124.612 52.736C124.281 52.4587 123.833 52.32 123.268 52.32C122.745 52.32 122.329 52.432 122.02 52.656C121.711 52.88 121.556 53.1733 121.556 53.536C121.556 53.824 121.647 54.064 121.828 54.256C122.02 54.4373 122.255 54.5867 122.532 54.704C122.82 54.8107 123.215 54.9333 123.716 55.072C124.345 55.2427 124.857 55.4133 125.252 55.584C125.647 55.744 125.983 55.9893 126.26 56.32C126.548 56.6507 126.697 57.0827 126.708 57.616C126.708 58.096 126.575 58.528 126.308 58.912C126.041 59.296 125.663 59.6 125.172 59.824C124.692 60.0373 124.137 60.144 123.508 60.144ZM130.539 52.432V57.6C130.539 58.0267 130.63 58.3307 130.811 58.512C130.993 58.6827 131.307 58.768 131.755 58.768H132.827V60H131.515C130.705 60 130.097 59.8133 129.691 59.44C129.286 59.0667 129.083 58.4533 129.083 57.6V52.432H127.947V51.232H129.083V49.024H130.539V51.232H132.827V52.432H130.539ZM134.047 55.584C134.047 54.688 134.229 53.904 134.591 53.232C134.954 52.5493 135.45 52.0213 136.079 51.648C136.719 51.2747 137.429 51.088 138.207 51.088C138.975 51.088 139.642 51.2533 140.207 51.584C140.773 51.9147 141.194 52.3307 141.471 52.832V51.232H142.943V60H141.471V58.368C141.183 58.88 140.751 59.3067 140.175 59.648C139.61 59.9787 138.949 60.144 138.191 60.144C137.413 60.144 136.709 59.952 136.079 59.568C135.45 59.184 134.954 58.6453 134.591 57.952C134.229 57.2587 134.047 56.4693 134.047 55.584ZM141.471 55.6C141.471 54.9387 141.338 54.3627 141.071 53.872C140.805 53.3813 140.442 53.008 139.983 52.752C139.535 52.4853 139.039 52.352 138.495 52.352C137.951 52.352 137.455 52.48 137.007 52.736C136.559 52.992 136.202 53.3653 135.935 53.856C135.669 54.3467 135.535 54.9227 135.535 55.584C135.535 56.256 135.669 56.8427 135.935 57.344C136.202 57.8347 136.559 58.2133 137.007 58.48C137.455 58.736 137.951 58.864 138.495 58.864C139.039 58.864 139.535 58.736 139.983 58.48C140.442 58.2133 140.805 57.8347 141.071 57.344C141.338 56.8427 141.471 56.2613 141.471 55.6ZM149.676 51.072C150.743 51.072 151.607 51.3973 152.268 52.048C152.929 52.688 153.26 53.616 153.26 54.832V60H151.82V55.04C151.82 54.1653 151.601 53.4987 151.164 53.04C150.727 52.5707 150.129 52.336 149.372 52.336C148.604 52.336 147.991 52.576 147.532 53.056C147.084 53.536 146.86 54.2347 146.86 55.152V60H145.404V51.232H146.86V52.48C147.148 52.032 147.537 51.6853 148.028 51.44C148.529 51.1947 149.079 51.072 149.676 51.072ZM157.414 52.432V57.6C157.414 58.0267 157.505 58.3307 157.686 58.512C157.868 58.6827 158.182 58.768 158.63 58.768H159.702V60H158.39C157.58 60 156.972 59.8133 156.566 59.44C156.161 59.0667 155.958 58.4533 155.958 57.6V52.432H154.822V51.232H155.958V49.024H157.414V51.232H159.702V52.432H157.414ZM167.188 50.032V53.76H171.252V54.96H167.188V58.8H171.732V60H165.732V48.832H171.732V50.032H167.188ZM178.511 60L176.431 56.736L174.431 60H172.911L175.743 55.648L172.911 51.232H174.559L176.639 54.48L178.623 51.232H180.143L177.327 55.568L180.159 60H178.511ZM181.047 55.6C181.047 54.6933 181.229 53.904 181.591 53.232C181.954 52.5493 182.455 52.0213 183.095 51.648C183.746 51.2747 184.487 51.088 185.319 51.088C186.397 51.088 187.282 51.3493 187.975 51.872C188.679 52.3947 189.143 53.12 189.367 54.048H187.799C187.65 53.5147 187.357 53.0933 186.919 52.784C186.493 52.4747 185.959 52.32 185.319 52.32C184.487 52.32 183.815 52.608 183.303 53.184C182.791 53.7493 182.535 54.5547 182.535 55.6C182.535 56.656 182.791 57.472 183.303 58.048C183.815 58.624 184.487 58.912 185.319 58.912C185.959 58.912 186.493 58.7627 186.919 58.464C187.346 58.1653 187.639 57.7387 187.799 57.184H189.367C189.133 58.08 188.663 58.8 187.959 59.344C187.255 59.8773 186.375 60.144 185.319 60.144C184.487 60.144 183.746 59.9573 183.095 59.584C182.455 59.2107 181.954 58.6827 181.591 58C181.229 57.3173 181.047 56.5173 181.047 55.6ZM195.662 51.072C196.323 51.072 196.921 51.216 197.454 51.504C197.987 51.7813 198.403 52.2027 198.702 52.768C199.011 53.3333 199.166 54.0213 199.166 54.832V60H197.726V55.04C197.726 54.1653 197.507 53.4987 197.07 53.04C196.633 52.5707 196.035 52.336 195.278 52.336C194.51 52.336 193.897 52.576 193.438 53.056C192.99 53.536 192.766 54.2347 192.766 55.152V60H191.31V48.16H192.766V52.48C193.054 52.032 193.449 51.6853 193.95 51.44C194.462 51.1947 195.033 51.072 195.662 51.072ZM201.001 55.584C201.001 54.688 201.182 53.904 201.545 53.232C201.907 52.5493 202.403 52.0213 203.033 51.648C203.673 51.2747 204.382 51.088 205.161 51.088C205.929 51.088 206.595 51.2533 207.161 51.584C207.726 51.9147 208.147 52.3307 208.425 52.832V51.232H209.897V60H208.425V58.368C208.137 58.88 207.705 59.3067 207.129 59.648C206.563 59.9787 205.902 60.144 205.145 60.144C204.366 60.144 203.662 59.952 203.033 59.568C202.403 59.184 201.907 58.6453 201.545 57.952C201.182 57.2587 201.001 56.4693 201.001 55.584ZM208.425 55.6C208.425 54.9387 208.291 54.3627 208.025 53.872C207.758 53.3813 207.395 53.008 206.937 52.752C206.489 52.4853 205.993 52.352 205.449 52.352C204.905 52.352 204.409 52.48 203.961 52.736C203.513 52.992 203.155 53.3653 202.889 53.856C202.622 54.3467 202.489 54.9227 202.489 55.584C202.489 56.256 202.622 56.8427 202.889 57.344C203.155 57.8347 203.513 58.2133 203.961 58.48C204.409 58.736 204.905 58.864 205.449 58.864C205.993 58.864 206.489 58.736 206.937 58.48C207.395 58.2133 207.758 57.8347 208.025 57.344C208.291 56.8427 208.425 56.2613 208.425 55.6ZM216.629 51.072C217.696 51.072 218.56 51.3973 219.221 52.048C219.882 52.688 220.213 53.616 220.213 54.832V60H218.773V55.04C218.773 54.1653 218.554 53.4987 218.117 53.04C217.68 52.5707 217.082 52.336 216.325 52.336C215.557 52.336 214.944 52.576 214.485 53.056C214.037 53.536 213.813 54.2347 213.813 55.152V60H212.357V51.232H213.813V52.48C214.101 52.032 214.49 51.6853 214.981 51.44C215.482 51.1947 216.032 51.072 216.629 51.072ZM226.207 51.088C226.965 51.088 227.626 51.2533 228.191 51.584C228.767 51.9147 229.194 52.3307 229.471 52.832V51.232H230.943V60.192C230.943 60.992 230.773 61.7013 230.431 62.32C230.09 62.9493 229.599 63.44 228.959 63.792C228.33 64.144 227.594 64.32 226.751 64.32C225.599 64.32 224.639 64.048 223.871 63.504C223.103 62.96 222.65 62.2187 222.511 61.28H223.951C224.111 61.8133 224.442 62.24 224.943 62.56C225.445 62.8907 226.047 63.056 226.751 63.056C227.551 63.056 228.202 62.8053 228.703 62.304C229.215 61.8027 229.471 61.0987 229.471 60.192V58.352C229.183 58.864 228.757 59.2907 228.191 59.632C227.626 59.9733 226.965 60.144 226.207 60.144C225.429 60.144 224.719 59.952 224.079 59.568C223.45 59.184 222.954 58.6453 222.591 57.952C222.229 57.2587 222.047 56.4693 222.047 55.584C222.047 54.688 222.229 53.904 222.591 53.232C222.954 52.5493 223.45 52.0213 224.079 51.648C224.719 51.2747 225.429 51.088 226.207 51.088ZM229.471 55.6C229.471 54.9387 229.338 54.3627 229.071 53.872C228.805 53.3813 228.442 53.008 227.983 52.752C227.535 52.4853 227.039 52.352 226.495 52.352C225.951 52.352 225.455 52.48 225.007 52.736C224.559 52.992 224.202 53.3653 223.935 53.856C223.669 54.3467 223.535 54.9227 223.535 55.584C223.535 56.256 223.669 56.8427 223.935 57.344C224.202 57.8347 224.559 58.2133 225.007 58.48C225.455 58.736 225.951 58.864 226.495 58.864C227.039 58.864 227.535 58.736 227.983 58.48C228.442 58.2133 228.805 57.8347 229.071 57.344C229.338 56.8427 229.471 56.2613 229.471 55.6ZM241.404 55.28C241.404 55.5573 241.388 55.8507 241.356 56.16H234.348C234.401 57.024 234.695 57.7013 235.228 58.192C235.772 58.672 236.428 58.912 237.196 58.912C237.825 58.912 238.348 58.768 238.764 58.48C239.191 58.1813 239.489 57.7867 239.66 57.296H241.228C240.993 58.1387 240.524 58.8267 239.82 59.36C239.116 59.8827 238.241 60.144 237.196 60.144C236.364 60.144 235.617 59.9573 234.956 59.584C234.305 59.2107 233.793 58.6827 233.42 58C233.047 57.3067 232.86 56.5067 232.86 55.6C232.86 54.6933 233.041 53.8987 233.404 53.216C233.767 52.5333 234.273 52.0107 234.924 51.648C235.585 51.2747 236.343 51.088 237.196 51.088C238.028 51.088 238.764 51.2693 239.404 51.632C240.044 51.9947 240.535 52.496 240.876 53.136C241.228 53.7653 241.404 54.48 241.404 55.28ZM239.9 54.976C239.9 54.4213 239.777 53.9467 239.532 53.552C239.287 53.1467 238.951 52.8427 238.524 52.64C238.108 52.4267 237.644 52.32 237.132 52.32C236.396 52.32 235.767 52.5547 235.244 53.024C234.732 53.4933 234.439 54.144 234.364 54.976H239.9Z" fill="white"/>
<g clip-path="url(#clip0_14_934)">
<path d="M58.9616 47.8575C58.7396 45.574 57.5704 43.4958 55.6693 42.0057C54.9361 41.431 54.1034 40.9506 53.1851 40.5681V30.2723C53.1851 30.0546 53.069 29.8534 52.8804 29.7445L36.8973 20.5167C36.7087 20.4078 36.4764 20.4078 36.2879 20.5167L20.3047 29.7445C20.1161 29.8534 20.0001 30.0546 20.0001 30.2723V48.728C20.0001 48.9457 20.1161 49.1469 20.3047 49.2557L36.2879 58.4836C36.3821 58.538 36.4874 58.5652 36.5926 58.5652C36.6978 58.5652 36.803 58.538 36.8973 58.4836L52.8804 49.2557C53.0057 49.1834 53.098 49.0699 53.1465 48.9382C53.5622 49.4747 53.8502 50.076 53.9861 50.7097C54.4887 53.0511 52.9744 55.3275 50.0342 56.6505C49.752 56.7776 49.6097 57.0961 49.7037 57.3911C49.7854 57.6478 50.0233 57.8157 50.2839 57.8156C50.3228 57.8156 50.3622 57.8119 50.4016 57.8041C53.2225 57.2506 55.5313 55.9383 57.0782 54.0091C58.5054 52.2296 59.1742 50.045 58.9616 47.8575ZM36.5926 38.7965L32.1373 36.2243L46.9017 27.7L51.357 30.2723L36.5926 38.7965ZM27.5022 33.5482L42.2665 25.0239L45.6829 26.9964L30.9185 35.5207L27.5022 33.5482ZM30.3092 36.5761L30.3092 42.4363L26.8929 40.4639L26.8928 34.6036L30.3092 36.5761ZM36.5926 21.7481L41.0478 24.3203L26.2834 32.8445L21.8282 30.2723L36.5926 21.7481ZM21.2188 31.3278L25.674 33.9L25.6741 40.8157C25.6741 41.0334 25.7902 41.2346 25.9788 41.3435L30.6138 44.0194C30.7081 44.0738 30.8133 44.1011 30.9185 44.1011C31.0237 44.1011 31.129 44.0739 31.2232 44.0194C31.4118 43.9106 31.5279 43.7094 31.5279 43.4917L31.528 37.2798L35.9832 39.852V56.9005L21.2188 48.3763V31.3278ZM37.202 56.9004V39.852L51.9664 31.3278V40.133C50.6989 39.7507 49.3 39.532 47.7972 39.4857V37.5149C47.7972 37.2782 47.6602 37.0629 47.4458 36.9628C47.2313 36.8626 46.9782 36.8957 46.7967 37.0476L39.7517 42.9441C39.6081 43.0643 39.5278 43.2437 39.5337 43.4309C39.5397 43.618 39.6314 43.792 39.7824 43.9027L46.8274 49.0713C47.0127 49.2072 47.2585 49.2274 47.4633 49.1236C47.6681 49.0198 47.7973 48.8097 47.7973 48.58V46.5313C49.411 46.618 50.8286 47.0521 51.9255 47.7999C51.9395 47.8094 51.9526 47.8194 51.9664 47.829V48.3763L37.202 56.9004ZM54.044 55.1092C54.1946 54.9126 54.3323 54.7105 54.4571 54.5031C55.2237 53.229 55.4729 51.8288 55.1778 50.454C54.8678 49.0095 53.9566 47.7093 52.6119 46.7927C51.1757 45.8138 49.3 45.2962 47.1879 45.2962C46.8513 45.2962 46.5785 45.5691 46.5785 45.9056V47.377L41.1299 43.3796L46.5785 38.8194V40.0856C46.5785 40.4222 46.8513 40.695 47.1879 40.695C54.4606 40.695 57.4222 44.6168 57.7486 47.9752C57.9877 50.4364 56.8669 53.3037 54.044 55.1092Z" fill="black"/>
</g>
<defs>
<clipPath id="clip0_14_934">
<rect width="39" height="39" fill="white" transform="translate(20 20)"/>
</clipPath>
</defs>
</svg>
