<svg width="252" height="78" viewBox="0 0 252 78" fill="none" xmlns="http://www.w3.org/2000/svg">
<circle cx="39" cy="39" r="39" fill="white"/>
<path d="M106.122 30.394C107.985 28.898 109.444 27.6733 110.5 26.72C111.556 25.752 112.443 24.7473 113.162 23.706C113.895 22.65 114.262 21.616 114.262 20.604C114.262 19.6507 114.027 18.9027 113.558 18.36C113.103 17.8027 112.363 17.524 111.336 17.524C110.339 17.524 109.561 17.8393 109.004 18.47C108.461 19.086 108.168 19.9147 108.124 20.956H106.188C106.247 19.3133 106.745 18.0447 107.684 17.15C108.623 16.2553 109.833 15.808 111.314 15.808C112.825 15.808 114.02 16.226 114.9 17.062C115.795 17.898 116.242 19.0493 116.242 20.516C116.242 21.7333 115.875 22.9213 115.142 24.08C114.423 25.224 113.602 26.236 112.678 27.116C111.754 27.9813 110.573 28.9933 109.136 30.152H116.704V31.824H106.122V30.394ZM118.534 28.458V26.94L126.256 16.248H128.654V26.72H130.854V28.458H128.654V32H126.674V28.458H118.534ZM126.762 18.338L120.844 26.72H126.762V18.338ZM140.664 11.276L134.636 35.74H132.656L138.662 11.276H140.664ZM153.107 17.656L146.991 32H144.967L151.171 17.854H142.679V16.138H153.107V17.656Z" fill="white"/>
<path d="M105.688 54.416C105.688 53.328 105.933 52.352 106.424 51.488C106.915 50.6133 107.581 49.9307 108.424 49.44C109.277 48.9493 110.221 48.704 111.256 48.704C112.472 48.704 113.533 48.9973 114.44 49.584C115.347 50.1707 116.008 51.0027 116.424 52.08H114.68C114.371 51.408 113.923 50.8907 113.336 50.528C112.76 50.1653 112.067 49.984 111.256 49.984C110.477 49.984 109.779 50.1653 109.16 50.528C108.541 50.8907 108.056 51.408 107.704 52.08C107.352 52.7413 107.176 53.52 107.176 54.416C107.176 55.3013 107.352 56.08 107.704 56.752C108.056 57.4133 108.541 57.9253 109.16 58.288C109.779 58.6507 110.477 58.832 111.256 58.832C112.067 58.832 112.76 58.656 113.336 58.304C113.923 57.9413 114.371 57.424 114.68 56.752H116.424C116.008 57.8187 115.347 58.6453 114.44 59.232C113.533 59.808 112.472 60.096 111.256 60.096C110.221 60.096 109.277 59.856 108.424 59.376C107.581 58.8853 106.915 58.208 106.424 57.344C105.933 56.48 105.688 55.504 105.688 54.416ZM126.367 51.232V60H124.911V58.704C124.634 59.152 124.245 59.504 123.743 59.76C123.253 60.0053 122.709 60.128 122.111 60.128C121.429 60.128 120.815 59.9893 120.271 59.712C119.727 59.424 119.295 58.9973 118.975 58.432C118.666 57.8667 118.511 57.1787 118.511 56.368V51.232H119.951V56.176C119.951 57.04 120.17 57.7067 120.607 58.176C121.045 58.6347 121.642 58.864 122.399 58.864C123.178 58.864 123.791 58.624 124.239 58.144C124.687 57.664 124.911 56.9653 124.911 56.048V51.232H126.367ZM131.93 60.144C131.258 60.144 130.655 60.032 130.122 59.808C129.588 59.5733 129.167 59.2533 128.858 58.848C128.548 58.432 128.378 57.9573 128.346 57.424H129.85C129.892 57.8613 130.095 58.2187 130.458 58.496C130.831 58.7733 131.316 58.912 131.914 58.912C132.468 58.912 132.906 58.7893 133.226 58.544C133.546 58.2987 133.706 57.9893 133.706 57.616C133.706 57.232 133.535 56.9493 133.194 56.768C132.852 56.576 132.324 56.3893 131.61 56.208C130.959 56.0373 130.426 55.8667 130.01 55.696C129.604 55.5147 129.252 55.2533 128.954 54.912C128.666 54.56 128.522 54.1013 128.522 53.536C128.522 53.088 128.655 52.6773 128.922 52.304C129.188 51.9307 129.567 51.6373 130.058 51.424C130.548 51.2 131.108 51.088 131.738 51.088C132.708 51.088 133.492 51.3333 134.09 51.824C134.687 52.3147 135.007 52.9867 135.05 53.84H133.594C133.562 53.3813 133.375 53.0133 133.034 52.736C132.703 52.4587 132.255 52.32 131.69 52.32C131.167 52.32 130.751 52.432 130.442 52.656C130.132 52.88 129.978 53.1733 129.978 53.536C129.978 53.824 130.068 54.064 130.25 54.256C130.442 54.4373 130.676 54.5867 130.954 54.704C131.242 54.8107 131.636 54.9333 132.138 55.072C132.767 55.2427 133.279 55.4133 133.674 55.584C134.068 55.744 134.404 55.9893 134.682 56.32C134.97 56.6507 135.119 57.0827 135.13 57.616C135.13 58.096 134.996 58.528 134.73 58.912C134.463 59.296 134.084 59.6 133.594 59.824C133.114 60.0373 132.559 60.144 131.93 60.144ZM138.961 52.432V57.6C138.961 58.0267 139.052 58.3307 139.233 58.512C139.414 58.6827 139.729 58.768 140.177 58.768H141.249V60H139.937C139.126 60 138.518 59.8133 138.113 59.44C137.708 59.0667 137.505 58.4533 137.505 57.6V52.432H136.369V51.232H137.505V49.024H138.961V51.232H141.249V52.432H138.961ZM146.837 60.144C146.016 60.144 145.269 59.9573 144.597 59.584C143.936 59.2107 143.413 58.6827 143.029 58C142.656 57.3067 142.469 56.5067 142.469 55.6C142.469 54.704 142.661 53.9147 143.045 53.232C143.44 52.5387 143.973 52.0107 144.645 51.648C145.317 51.2747 146.069 51.088 146.901 51.088C147.733 51.088 148.485 51.2747 149.157 51.648C149.829 52.0107 150.357 52.5333 150.741 53.216C151.136 53.8987 151.333 54.6933 151.333 55.6C151.333 56.5067 151.131 57.3067 150.725 58C150.331 58.6827 149.792 59.2107 149.109 59.584C148.427 59.9573 147.669 60.144 146.837 60.144ZM146.837 58.864C147.36 58.864 147.851 58.7413 148.309 58.496C148.768 58.2507 149.136 57.8827 149.413 57.392C149.701 56.9013 149.845 56.304 149.845 55.6C149.845 54.896 149.707 54.2987 149.429 53.808C149.152 53.3173 148.789 52.9547 148.341 52.72C147.893 52.4747 147.408 52.352 146.885 52.352C146.352 52.352 145.861 52.4747 145.413 52.72C144.976 52.9547 144.624 53.3173 144.357 53.808C144.091 54.2987 143.957 54.896 143.957 55.6C143.957 56.3147 144.085 56.9173 144.341 57.408C144.608 57.8987 144.96 58.2667 145.397 58.512C145.835 58.7467 146.315 58.864 146.837 58.864ZM163.792 51.072C164.474 51.072 165.082 51.216 165.616 51.504C166.149 51.7813 166.57 52.2027 166.88 52.768C167.189 53.3333 167.344 54.0213 167.344 54.832V60H165.904V55.04C165.904 54.1653 165.685 53.4987 165.248 53.04C164.821 52.5707 164.24 52.336 163.504 52.336C162.746 52.336 162.144 52.5813 161.696 53.072C161.248 53.552 161.024 54.2507 161.024 55.168V60H159.584V55.04C159.584 54.1653 159.365 53.4987 158.928 53.04C158.501 52.5707 157.92 52.336 157.184 52.336C156.426 52.336 155.824 52.5813 155.376 53.072C154.928 53.552 154.704 54.2507 154.704 55.168V60H153.248V51.232H154.704V52.496C154.992 52.0373 155.376 51.6853 155.856 51.44C156.346 51.1947 156.885 51.072 157.472 51.072C158.208 51.072 158.858 51.2373 159.424 51.568C159.989 51.8987 160.41 52.384 160.688 53.024C160.933 52.4053 161.338 51.9253 161.904 51.584C162.469 51.2427 163.098 51.072 163.792 51.072ZM177.732 55.28C177.732 55.5573 177.716 55.8507 177.684 56.16H170.676C170.729 57.024 171.023 57.7013 171.556 58.192C172.1 58.672 172.756 58.912 173.524 58.912C174.153 58.912 174.676 58.768 175.092 58.48C175.519 58.1813 175.817 57.7867 175.988 57.296H177.556C177.321 58.1387 176.852 58.8267 176.148 59.36C175.444 59.8827 174.569 60.144 173.524 60.144C172.692 60.144 171.945 59.9573 171.284 59.584C170.633 59.2107 170.121 58.6827 169.748 58C169.375 57.3067 169.188 56.5067 169.188 55.6C169.188 54.6933 169.369 53.8987 169.732 53.216C170.095 52.5333 170.601 52.0107 171.252 51.648C171.913 51.2747 172.671 51.088 173.524 51.088C174.356 51.088 175.092 51.2693 175.732 51.632C176.372 51.9947 176.863 52.496 177.204 53.136C177.556 53.7653 177.732 54.48 177.732 55.28ZM176.228 54.976C176.228 54.4213 176.105 53.9467 175.86 53.552C175.615 53.1467 175.279 52.8427 174.852 52.64C174.436 52.4267 173.972 52.32 173.46 52.32C172.724 52.32 172.095 52.5547 171.572 53.024C171.06 53.4933 170.767 54.144 170.692 54.976H176.228ZM181.11 52.656C181.366 52.1547 181.729 51.7653 182.198 51.488C182.678 51.2107 183.259 51.072 183.942 51.072V52.576H183.558C181.926 52.576 181.11 53.4613 181.11 55.232V60H179.654V51.232H181.11V52.656ZM193.424 60.112C192.688 60.112 192.027 59.984 191.44 59.728C190.864 59.4613 190.411 59.0987 190.08 58.64C189.75 58.1707 189.579 57.632 189.568 57.024H191.12C191.174 57.5467 191.387 57.9893 191.76 58.352C192.144 58.704 192.699 58.88 193.424 58.88C194.118 58.88 194.662 58.7093 195.056 58.368C195.462 58.016 195.664 57.568 195.664 57.024C195.664 56.5973 195.547 56.2507 195.312 55.984C195.078 55.7173 194.784 55.5147 194.432 55.376C194.08 55.2373 193.606 55.088 193.008 54.928C192.272 54.736 191.68 54.544 191.232 54.352C190.795 54.16 190.416 53.8613 190.096 53.456C189.787 53.04 189.632 52.4853 189.632 51.792C189.632 51.184 189.787 50.6453 190.096 50.176C190.406 49.7067 190.838 49.344 191.392 49.088C191.958 48.832 192.603 48.704 193.328 48.704C194.374 48.704 195.227 48.9653 195.888 49.488C196.56 50.0107 196.939 50.704 197.024 51.568H195.424C195.371 51.1413 195.147 50.768 194.752 50.448C194.358 50.1173 193.835 49.952 193.184 49.952C192.576 49.952 192.08 50.112 191.696 50.432C191.312 50.7413 191.12 51.1787 191.12 51.744C191.12 52.1493 191.232 52.48 191.456 52.736C191.691 52.992 191.974 53.1893 192.304 53.328C192.646 53.456 193.12 53.6053 193.728 53.776C194.464 53.9787 195.056 54.1813 195.504 54.384C195.952 54.576 196.336 54.88 196.656 55.296C196.976 55.7013 197.136 56.256 197.136 56.96C197.136 57.504 196.992 58.016 196.704 58.496C196.416 58.976 195.99 59.3653 195.424 59.664C194.859 59.9627 194.192 60.112 193.424 60.112ZM207.055 51.232V60H205.599V58.704C205.322 59.152 204.932 59.504 204.431 59.76C203.94 60.0053 203.396 60.128 202.799 60.128C202.116 60.128 201.503 59.9893 200.959 59.712C200.415 59.424 199.983 58.9973 199.663 58.432C199.354 57.8667 199.199 57.1787 199.199 56.368V51.232H200.639V56.176C200.639 57.04 200.858 57.7067 201.295 58.176C201.732 58.6347 202.33 58.864 203.087 58.864C203.866 58.864 204.479 58.624 204.927 58.144C205.375 57.664 205.599 56.9653 205.599 56.048V51.232H207.055ZM210.969 52.848C211.257 52.3467 211.684 51.9307 212.249 51.6C212.825 51.2587 213.492 51.088 214.249 51.088C215.028 51.088 215.732 51.2747 216.361 51.648C217.001 52.0213 217.503 52.5493 217.865 53.232C218.228 53.904 218.409 54.688 218.409 55.584C218.409 56.4693 218.228 57.2587 217.865 57.952C217.503 58.6453 217.001 59.184 216.361 59.568C215.732 59.952 215.028 60.144 214.249 60.144C213.503 60.144 212.841 59.9787 212.265 59.648C211.7 59.3067 211.268 58.8853 210.969 58.384V64.16H209.513V51.232H210.969V52.848ZM216.921 55.584C216.921 54.9227 216.788 54.3467 216.521 53.856C216.255 53.3653 215.892 52.992 215.433 52.736C214.985 52.48 214.489 52.352 213.945 52.352C213.412 52.352 212.916 52.4853 212.457 52.752C212.009 53.008 211.647 53.3867 211.369 53.888C211.103 54.3787 210.969 54.9493 210.969 55.6C210.969 56.2613 211.103 56.8427 211.369 57.344C211.647 57.8347 212.009 58.2133 212.457 58.48C212.916 58.736 213.412 58.864 213.945 58.864C214.489 58.864 214.985 58.736 215.433 58.48C215.892 58.2133 216.255 57.8347 216.521 57.344C216.788 56.8427 216.921 56.256 216.921 55.584ZM221.782 52.848C222.07 52.3467 222.496 51.9307 223.062 51.6C223.638 51.2587 224.304 51.088 225.062 51.088C225.84 51.088 226.544 51.2747 227.174 51.648C227.814 52.0213 228.315 52.5493 228.678 53.232C229.04 53.904 229.222 54.688 229.222 55.584C229.222 56.4693 229.04 57.2587 228.678 57.952C228.315 58.6453 227.814 59.184 227.174 59.568C226.544 59.952 225.84 60.144 225.062 60.144C224.315 60.144 223.654 59.9787 223.078 59.648C222.512 59.3067 222.08 58.8853 221.782 58.384V64.16H220.326V51.232H221.782V52.848ZM227.734 55.584C227.734 54.9227 227.6 54.3467 227.334 53.856C227.067 53.3653 226.704 52.992 226.246 52.736C225.798 52.48 225.302 52.352 224.758 52.352C224.224 52.352 223.728 52.4853 223.27 52.752C222.822 53.008 222.459 53.3867 222.182 53.888C221.915 54.3787 221.782 54.9493 221.782 55.6C221.782 56.2613 221.915 56.8427 222.182 57.344C222.459 57.8347 222.822 58.2133 223.27 58.48C223.728 58.736 224.224 58.864 224.758 58.864C225.302 58.864 225.798 58.736 226.246 58.48C226.704 58.2133 227.067 57.8347 227.334 57.344C227.6 56.8427 227.734 56.256 227.734 55.584ZM234.962 60.144C234.141 60.144 233.394 59.9573 232.722 59.584C232.061 59.2107 231.538 58.6827 231.154 58C230.781 57.3067 230.594 56.5067 230.594 55.6C230.594 54.704 230.786 53.9147 231.17 53.232C231.565 52.5387 232.098 52.0107 232.77 51.648C233.442 51.2747 234.194 51.088 235.026 51.088C235.858 51.088 236.61 51.2747 237.282 51.648C237.954 52.0107 238.482 52.5333 238.866 53.216C239.261 53.8987 239.458 54.6933 239.458 55.6C239.458 56.5067 239.256 57.3067 238.85 58C238.456 58.6827 237.917 59.2107 237.234 59.584C236.552 59.9573 235.794 60.144 234.962 60.144ZM234.962 58.864C235.485 58.864 235.976 58.7413 236.434 58.496C236.893 58.2507 237.261 57.8827 237.538 57.392C237.826 56.9013 237.97 56.304 237.97 55.6C237.97 54.896 237.832 54.2987 237.554 53.808C237.277 53.3173 236.914 52.9547 236.466 52.72C236.018 52.4747 235.533 52.352 235.01 52.352C234.477 52.352 233.986 52.4747 233.538 52.72C233.101 52.9547 232.749 53.3173 232.482 53.808C232.216 54.2987 232.082 54.896 232.082 55.6C232.082 56.3147 232.21 56.9173 232.466 57.408C232.733 57.8987 233.085 58.2667 233.522 58.512C233.96 58.7467 234.44 58.864 234.962 58.864ZM242.829 52.656C243.085 52.1547 243.447 51.7653 243.917 51.488C244.397 51.2107 244.978 51.072 245.661 51.072V52.576H245.277C243.645 52.576 242.829 53.4613 242.829 55.232V60H241.373V51.232H242.829V52.656ZM249.117 52.432V57.6C249.117 58.0267 249.208 58.3307 249.389 58.512C249.571 58.6827 249.885 58.768 250.333 58.768H251.405V60H250.093C249.283 60 248.675 59.8133 248.269 59.44C247.864 59.0667 247.661 58.4533 247.661 57.6V52.432H246.525V51.232H247.661V49.024H249.117V51.232H251.405V52.432H249.117Z" fill="white"/>
<g clip-path="url(#clip0_14_932)">
<path d="M56.2615 37.0036C56.1122 32.7496 54.3895 28.7716 51.3645 25.7466C48.194 22.5754 43.9801 20.8296 39.5 20.8296C30.4514 20.8296 23.0579 28.0318 22.7392 37.0036C21.3583 37.6173 20.3918 38.9993 20.3918 40.6056V45.0309C20.3918 47.2039 22.1596 48.9724 24.3333 48.9724C25.7397 48.9724 26.8835 47.8286 26.8835 46.4221V39.2138C26.8835 37.8933 25.8707 36.8165 24.5831 36.6886C25.0584 28.8721 31.5653 22.6577 39.5 22.6577C43.4926 22.6577 47.247 24.2141 50.0727 27.0397C52.6674 29.6344 54.186 33.0165 54.4145 36.6892C53.1281 36.8184 52.1171 37.8945 52.1171 39.2138V46.4215C52.1171 47.753 53.1457 48.8365 54.4486 48.9492V50.7706C54.4486 52.8218 52.7795 54.4902 50.7284 54.4902H47.9734C47.8381 54.1039 47.626 53.7468 47.3287 53.4507C46.8076 52.9272 46.113 52.639 45.3732 52.639H42.5335C42.1258 52.639 41.7346 52.7255 41.3763 52.8925C40.3988 53.3416 39.7675 54.3275 39.7675 55.4043C39.7675 56.1441 40.0558 56.8388 40.578 57.3586C41.1002 57.882 41.7949 58.1703 42.5335 58.1703H45.3732C46.5505 58.1703 47.5882 57.4092 47.9752 56.3184H50.7284C53.788 56.3184 56.2767 53.8297 56.2767 50.7706V48.6238C57.649 48.0065 58.6082 46.6293 58.6082 45.0297V40.6044C58.6082 38.9993 57.6417 37.6173 56.2615 37.0036ZM25.0548 39.2138V46.4215C25.0548 46.8194 24.7312 47.1436 24.3327 47.1436C23.1675 47.1436 22.2194 46.1954 22.2194 45.0303V40.605C22.2194 39.4393 23.1675 38.4917 24.3327 38.4917C24.7312 38.4917 25.0548 38.8159 25.0548 39.2138ZM46.2903 55.6005C46.1995 56.0307 45.8131 56.3434 45.3726 56.3434H42.5329C42.283 56.3434 42.0484 56.2459 41.8693 56.0667C41.6925 55.8906 41.595 55.6554 41.595 55.4055C41.595 55.0405 41.8089 54.7072 42.1441 54.553C42.2635 54.4969 42.3945 54.4683 42.5329 54.4683H45.3726C45.6224 54.4683 45.857 54.5652 46.0356 54.7444C46.2123 54.9205 46.3098 55.1557 46.3098 55.4055C46.3104 55.4726 46.3031 55.5396 46.2903 55.6005ZM56.7801 45.0303C56.7801 46.1954 55.8319 47.1436 54.6667 47.1436C54.2688 47.1436 53.9446 46.82 53.9446 46.4215V39.2138C53.9446 38.8159 54.2682 38.4917 54.6667 38.4917C55.8319 38.4917 56.7801 39.4399 56.7801 40.605V45.0303Z" fill="black"/>
<path d="M45.4189 45.3454C47.5547 45.3454 49.292 43.6075 49.292 41.4722V33.5802C49.292 32.5479 48.8886 31.5754 48.1562 30.8429C47.4237 30.1104 46.4517 29.707 45.4189 29.707H33.5811C31.4453 29.707 29.7079 31.4444 29.7079 33.5802V41.4722C29.7079 43.6081 31.4453 45.3454 33.5811 45.3454H33.6537V47.3905C33.6537 48.1705 34.1186 48.8627 34.8377 49.1546C35.0698 49.2479 35.3112 49.2942 35.55 49.2942C36.0479 49.2942 36.5329 49.0967 36.8882 48.7293L40.2904 45.3454H45.4189ZM39.2696 43.783L35.5878 47.4447C35.5714 47.4618 35.5592 47.4746 35.5244 47.4593C35.4824 47.4423 35.4824 47.4149 35.4824 47.3905V44.4314C35.4824 43.9268 35.0735 43.5173 34.5683 43.5173H33.5817C32.4538 43.5173 31.5367 42.5996 31.5367 41.4722V33.5802C31.5367 32.4523 32.4538 31.5352 33.5817 31.5352H45.4195C45.9642 31.5352 46.4767 31.7484 46.8643 32.1354C47.2519 32.523 47.4645 33.036 47.4645 33.5802V41.4722C47.4645 42.6002 46.5468 43.5173 45.4195 43.5173H39.9144C39.6724 43.5173 39.4409 43.613 39.2696 43.783Z" fill="black"/>
<path d="M35.0595 36.3237C34.316 36.3237 33.7109 36.9294 33.7109 37.6723C33.7109 38.4151 34.3167 39.0208 35.0595 39.0208C35.8035 39.0208 36.4092 38.4151 36.4092 37.6723C36.4092 36.9294 35.8041 36.3237 35.0595 36.3237Z" fill="black"/>
<path d="M39.4994 36.3237C38.756 36.3237 38.1509 36.9294 38.1509 37.6723C38.1509 38.4151 38.7566 39.0208 39.4994 39.0208C40.2441 39.0208 40.8492 38.4151 40.8492 37.6723C40.8492 36.9294 40.2441 36.3237 39.4994 36.3237Z" fill="black"/>
<path d="M43.9393 36.3237C43.1959 36.3237 42.5908 36.9294 42.5908 37.6723C42.5908 38.4151 43.1965 39.0208 43.9393 39.0208C44.6834 39.0208 45.2891 38.4151 45.2891 37.6723C45.2891 36.9294 44.6834 36.3237 43.9393 36.3237Z" fill="black"/>
</g>
<defs>
<clipPath id="clip0_14_932">
<rect width="39" height="39" fill="white" transform="translate(20 20)"/>
</clipPath>
</defs>
</svg>
