<svg width="233" height="78" viewBox="0 0 233 78" fill="none" xmlns="http://www.w3.org/2000/svg">
<circle cx="39" cy="39" r="39" fill="white"/>
<path d="M118.508 16.666V32H116.506V25.048H108.696V32H106.694V16.666H108.696V23.398H116.506V16.666H118.508ZM123.928 18.294V23.42H129.516V25.07H123.928V30.35H130.176V32H121.926V16.644H130.176V18.294H123.928ZM135.208 30.372H140.576V32H133.206V16.666H135.208V30.372ZM152.954 21.154C152.954 22.43 152.514 23.4933 151.634 24.344C150.768 25.18 149.441 25.598 147.652 25.598H144.704V32H142.702V16.666H147.652C149.382 16.666 150.695 17.084 151.59 17.92C152.499 18.756 152.954 19.834 152.954 21.154ZM147.652 23.948C148.766 23.948 149.588 23.706 150.116 23.222C150.644 22.738 150.908 22.0487 150.908 21.154C150.908 19.262 149.822 18.316 147.652 18.316H144.704V23.948H147.652ZM157.444 30.372H162.812V32H155.442V16.666H157.444V30.372ZM166.94 16.666V32H164.938V16.666H166.94ZM182.408 32H180.406L172.354 19.79V32H170.352V16.644H172.354L180.406 28.832V16.644H182.408V32ZM187.823 18.294V23.42H193.411V25.07H187.823V30.35H194.071V32H185.821V16.644H194.071V18.294H187.823Z" fill="white"/>
<path d="M114.552 54.768H111.144V58.224H109.784V54.768H106.392V53.536H109.784V50.064H111.144V53.536H114.552V54.768ZM120.898 62.976C119.874 61.9733 119.074 60.6987 118.498 59.152C117.933 57.6053 117.65 55.936 117.65 54.144C117.65 52.3093 117.949 50.5973 118.546 49.008C119.154 47.408 120.018 46.0907 121.138 45.056H122.658V45.2C121.463 46.32 120.562 47.6693 119.954 49.248C119.357 50.816 119.058 52.448 119.058 54.144C119.058 55.7973 119.341 57.376 119.906 58.88C120.482 60.384 121.319 61.7013 122.418 62.832V62.976H120.898ZM124.18 54.096C124.18 52.2613 124.478 50.832 125.076 49.808C125.673 48.7733 126.718 48.256 128.212 48.256C129.694 48.256 130.734 48.7733 131.332 49.808C131.929 50.832 132.227 52.2613 132.227 54.096C132.227 55.9627 131.929 57.4133 131.332 58.448C130.734 59.4827 129.694 60 128.212 60C126.718 60 125.673 59.4827 125.076 58.448C124.478 57.4133 124.18 55.9627 124.18 54.096ZM130.788 54.096C130.788 53.168 130.724 52.384 130.596 51.744C130.478 51.0933 130.228 50.5707 129.844 50.176C129.47 49.7813 128.926 49.584 128.212 49.584C127.486 49.584 126.932 49.7813 126.548 50.176C126.174 50.5707 125.924 51.0933 125.796 51.744C125.678 52.384 125.62 53.168 125.62 54.096C125.62 55.056 125.678 55.8613 125.796 56.512C125.924 57.1627 126.174 57.6853 126.548 58.08C126.932 58.4747 127.486 58.672 128.212 58.672C128.926 58.672 129.47 58.4747 129.844 58.08C130.228 57.6853 130.478 57.1627 130.596 56.512C130.724 55.8613 130.788 55.056 130.788 54.096ZM134.226 54.096C134.226 52.2613 134.525 50.832 135.122 49.808C135.72 48.7733 136.765 48.256 138.258 48.256C139.741 48.256 140.781 48.7733 141.378 49.808C141.976 50.832 142.274 52.2613 142.274 54.096C142.274 55.9627 141.976 57.4133 141.378 58.448C140.781 59.4827 139.741 60 138.258 60C136.765 60 135.72 59.4827 135.122 58.448C134.525 57.4133 134.226 55.9627 134.226 54.096ZM140.834 54.096C140.834 53.168 140.77 52.384 140.642 51.744C140.525 51.0933 140.274 50.5707 139.89 50.176C139.517 49.7813 138.973 49.584 138.258 49.584C137.533 49.584 136.978 49.7813 136.594 50.176C136.221 50.5707 135.97 51.0933 135.842 51.744C135.725 52.384 135.666 53.168 135.666 54.096C135.666 55.056 135.725 55.8613 135.842 56.512C135.97 57.1627 136.221 57.6853 136.594 58.08C136.978 58.4747 137.533 58.672 138.258 58.672C138.973 58.672 139.517 58.4747 139.89 58.08C140.274 57.6853 140.525 57.1627 140.642 56.512C140.77 55.8613 140.834 55.056 140.834 54.096ZM144.273 54.096C144.273 52.2613 144.572 50.832 145.169 49.808C145.767 48.7733 146.812 48.256 148.305 48.256C149.788 48.256 150.828 48.7733 151.425 49.808C152.023 50.832 152.321 52.2613 152.321 54.096C152.321 55.9627 152.023 57.4133 151.425 58.448C150.828 59.4827 149.788 60 148.305 60C146.812 60 145.767 59.4827 145.169 58.448C144.572 57.4133 144.273 55.9627 144.273 54.096ZM150.881 54.096C150.881 53.168 150.817 52.384 150.689 51.744C150.572 51.0933 150.321 50.5707 149.937 50.176C149.564 49.7813 149.02 49.584 148.305 49.584C147.58 49.584 147.025 49.7813 146.641 50.176C146.268 50.5707 146.017 51.0933 145.889 51.744C145.772 52.384 145.713 53.168 145.713 54.096C145.713 55.056 145.772 55.8613 145.889 56.512C146.017 57.1627 146.268 57.6853 146.641 58.08C147.025 58.4747 147.58 58.672 148.305 58.672C149.02 58.672 149.564 58.4747 149.937 58.08C150.321 57.6853 150.572 57.1627 150.689 56.512C150.817 55.8613 150.881 55.056 150.881 54.096ZM154.096 62.976V62.832C155.195 61.7013 156.027 60.384 156.592 58.88C157.168 57.376 157.456 55.7973 157.456 54.144C157.456 52.448 157.152 50.816 156.544 49.248C155.947 47.6693 155.051 46.32 153.856 45.2V45.056H155.376C156.496 46.0907 157.355 47.408 157.952 49.008C158.56 50.5973 158.864 52.3093 158.864 54.144C158.864 55.936 158.576 57.6053 158 59.152C157.435 60.6987 156.64 61.9733 155.616 62.976H154.096ZM161.202 49.76V48.432H164.21V60H162.738V49.76H161.202ZM166.535 58.832C167.889 57.744 168.951 56.8533 169.719 56.16C170.487 55.456 171.132 54.7253 171.655 53.968C172.188 53.2 172.455 52.448 172.455 51.712C172.455 51.0187 172.284 50.4747 171.943 50.08C171.612 49.6747 171.073 49.472 170.327 49.472C169.601 49.472 169.036 49.7013 168.631 50.16C168.236 50.608 168.023 51.2107 167.991 51.968H166.583C166.625 50.7733 166.988 49.8507 167.671 49.2C168.353 48.5493 169.233 48.224 170.311 48.224C171.409 48.224 172.279 48.528 172.919 49.136C173.569 49.744 173.895 50.5813 173.895 51.648C173.895 52.5333 173.628 53.3973 173.095 54.24C172.572 55.072 171.975 55.808 171.303 56.448C170.631 57.0773 169.772 57.8133 168.727 58.656H174.231V59.872H166.535V58.832ZM175.882 51.344C175.957 50.3627 176.335 49.5947 177.018 49.04C177.701 48.4853 178.586 48.208 179.674 48.208C180.399 48.208 181.023 48.3413 181.546 48.608C182.079 48.864 182.479 49.216 182.746 49.664C183.023 50.112 183.162 50.6187 183.162 51.184C183.162 51.8453 182.97 52.416 182.586 52.896C182.213 53.376 181.722 53.6853 181.114 53.824V53.904C181.807 54.0747 182.357 54.4107 182.762 54.912C183.167 55.4133 183.37 56.0693 183.37 56.88C183.37 57.488 183.231 58.0373 182.954 58.528C182.677 59.008 182.261 59.3867 181.706 59.664C181.151 59.9413 180.485 60.08 179.706 60.08C178.575 60.08 177.647 59.7867 176.922 59.2C176.197 58.6027 175.791 57.76 175.706 56.672H177.114C177.189 57.312 177.45 57.8347 177.898 58.24C178.346 58.6453 178.943 58.848 179.69 58.848C180.437 58.848 181.002 58.656 181.386 58.272C181.781 57.8773 181.978 57.3707 181.978 56.752C181.978 55.952 181.711 55.376 181.178 55.024C180.645 54.672 179.839 54.496 178.762 54.496H178.394V53.28H178.778C179.759 53.2693 180.501 53.1093 181.002 52.8C181.503 52.48 181.754 51.9893 181.754 51.328C181.754 50.7627 181.567 50.3093 181.194 49.968C180.831 49.6267 180.309 49.456 179.626 49.456C178.965 49.456 178.431 49.6267 178.026 49.968C177.621 50.3093 177.381 50.768 177.306 51.344H175.882ZM191.656 53.52V54.752H185.272V53.52H191.656ZM193.796 57.424V56.32L199.412 48.544H201.156V56.16H202.756V57.424H201.156V60H199.716V57.424H193.796ZM199.78 50.064L195.476 56.16H199.78V50.064ZM211.587 49.696H205.971V53.344C206.216 53.0027 206.579 52.7253 207.059 52.512C207.539 52.288 208.056 52.176 208.611 52.176C209.496 52.176 210.216 52.3627 210.771 52.736C211.325 53.0987 211.72 53.5733 211.955 54.16C212.2 54.736 212.323 55.3493 212.323 56C212.323 56.768 212.179 57.456 211.891 58.064C211.603 58.672 211.16 59.152 210.563 59.504C209.976 59.856 209.245 60.032 208.371 60.032C207.251 60.032 206.344 59.744 205.651 59.168C204.957 58.592 204.536 57.824 204.387 56.864H205.811C205.949 57.472 206.243 57.9467 206.691 58.288C207.139 58.6293 207.704 58.8 208.387 58.8C209.229 58.8 209.864 58.5493 210.291 58.048C210.717 57.536 210.931 56.864 210.931 56.032C210.931 55.2 210.717 54.56 210.291 54.112C209.864 53.6533 209.235 53.424 208.403 53.424C207.837 53.424 207.341 53.5627 206.915 53.84C206.499 54.1067 206.195 54.4747 206.003 54.944H204.627V48.416H211.587V49.696ZM220.706 51.184C220.471 50 219.74 49.408 218.514 49.408C217.564 49.408 216.855 49.776 216.386 50.512C215.916 51.2373 215.687 52.4373 215.698 54.112C215.943 53.5573 216.348 53.1253 216.914 52.816C217.49 52.496 218.13 52.336 218.834 52.336C219.932 52.336 220.807 52.6773 221.458 53.36C222.119 54.0427 222.45 54.9867 222.45 56.192C222.45 56.9173 222.306 57.568 222.018 58.144C221.74 58.72 221.314 59.1787 220.738 59.52C220.172 59.8613 219.484 60.032 218.674 60.032C217.575 60.032 216.716 59.7867 216.098 59.296C215.479 58.8053 215.047 58.128 214.802 57.264C214.556 56.4 214.434 55.3333 214.434 54.064C214.434 50.1493 215.799 48.192 218.53 48.192C219.575 48.192 220.396 48.4747 220.994 49.04C221.591 49.6053 221.943 50.32 222.05 51.184H220.706ZM218.53 53.568C218.071 53.568 217.639 53.664 217.234 53.856C216.828 54.0373 216.498 54.32 216.242 54.704C215.996 55.0773 215.874 55.536 215.874 56.08C215.874 56.8907 216.108 57.552 216.578 58.064C217.047 58.5653 217.719 58.816 218.594 58.816C219.34 58.816 219.932 58.5867 220.37 58.128C220.818 57.6587 221.042 57.0293 221.042 56.24C221.042 55.408 220.828 54.7573 220.402 54.288C219.975 53.808 219.351 53.568 218.53 53.568ZM231.534 49.568L227.086 60H225.614L230.126 49.712H223.95V48.464H231.534V49.568Z" fill="white"/>
<g clip-path="url(#clip0_14_933)">
<path d="M42.1996 20C41.7789 20 41.4379 20.341 41.4379 20.7617C41.4379 21.1824 41.7789 21.5234 42.1996 21.5234C50.6234 21.5234 57.4765 28.3768 57.4765 36.8003C57.4765 37.2211 57.8178 37.5621 58.2382 37.5621C58.659 37.5621 59 37.2211 59 36.8003C59 27.5368 51.4634 20 42.1996 20Z" fill="black"/>
<path d="M53.656 37.5622C54.0768 37.5622 54.4177 37.2209 54.4177 36.8005C54.4177 30.0631 48.9367 24.582 42.1996 24.582C41.7789 24.582 41.4379 24.9233 41.4379 25.3437C41.4379 25.7645 41.7789 26.1055 42.1996 26.1055C48.0967 26.1055 52.8943 30.9031 52.8943 36.8005C52.8943 37.2209 53.2353 37.5622 53.656 37.5622Z" fill="black"/>
<path d="M48.3112 36.8006C48.3112 37.221 48.6522 37.5623 49.0729 37.5623C49.4937 37.5623 49.8346 37.221 49.8346 36.8006C49.8346 32.5906 46.4096 29.1655 42.1996 29.1655C41.7789 29.1655 41.4379 29.5065 41.4379 29.9269C41.4379 30.3477 41.7789 30.6887 42.1996 30.6887C45.5696 30.6887 48.3112 33.4303 48.3112 36.8006Z" fill="black"/>
<path d="M41.4379 34.5098C41.4379 34.9302 41.7789 35.2712 42.1996 35.2712C43.0429 35.2712 43.729 35.9573 43.729 36.8009C43.729 37.2213 44.07 37.5626 44.4907 37.5626C44.9112 37.5626 45.2524 37.2213 45.2524 36.8009C45.2524 35.1174 43.8828 33.748 42.1996 33.748C41.7789 33.748 41.4379 34.089 41.4379 34.5098Z" fill="black"/>
<path d="M34.2771 44.7314C34.2771 45.1522 33.9362 45.4932 33.5154 45.4932C33.0947 45.4932 32.7537 45.1522 32.7537 44.7314C32.7537 44.311 33.0947 43.9697 33.5154 43.9697C33.9362 43.9697 34.2771 44.311 34.2771 44.7314Z" fill="black"/>
<path d="M40.8734 58.0752C44.3419 59.7751 48.5147 59.0678 51.2575 56.3251L52.8324 54.7502C53.6876 53.8959 53.6879 52.512 52.8327 51.6572L46.7473 45.5723C45.8936 44.7175 44.5094 44.7163 43.6549 45.572L41.0692 48.158C40.5628 48.6644 39.7811 48.7677 39.2111 48.4038C38.2815 47.8096 37.3773 47.1544 36.5236 46.4564C36.1978 46.1901 35.7182 46.2383 35.4519 46.5638C35.1855 46.8896 35.2338 47.3695 35.5593 47.6355C36.4587 48.3711 37.4112 49.0614 38.391 49.6874C39.5589 50.4334 41.1383 50.2432 42.1463 49.2351L44.7326 46.6489C44.9912 46.39 45.4101 46.3894 45.6699 46.6492L51.7556 52.7343C52.0147 52.9937 52.0153 53.4133 51.7556 53.6724L50.1804 55.2479C47.8955 57.5328 44.4249 58.1193 41.5438 56.7074C30.989 51.5316 25.2463 43.3247 22.2875 37.3511C20.8721 34.4944 21.4598 31.0369 23.75 28.7473L25.2907 27.2069C25.5489 26.948 25.9682 26.9472 26.2276 27.2072L32.3139 33.2932C32.5716 33.5506 32.5743 33.9701 32.3133 34.2305L29.7277 36.8165C28.7196 37.8245 28.5294 39.4039 29.2754 40.5721C29.7149 41.2597 30.1886 41.9381 30.6837 42.5883C30.9384 42.923 31.4162 42.9876 31.751 42.7329C32.0857 42.4782 32.1506 42.0003 31.8956 41.6653C31.4261 41.0485 30.9762 40.4046 30.559 39.752C30.1951 39.1817 30.2984 38.4 30.8048 37.8936L33.3902 35.3082C34.245 34.4545 34.2459 33.0701 33.3908 32.2158L27.305 26.1304C26.4517 25.2755 25.0672 25.2744 24.2129 26.1301L22.6728 27.6702C19.92 30.4222 19.2166 34.5846 20.9224 38.0275C23.9862 44.2126 29.9342 52.7111 40.8734 58.0752Z" fill="black"/>
</g>
<defs>
<clipPath id="clip0_14_933">
<rect width="39" height="39" fill="white" transform="translate(20 20)"/>
</clipPath>
</defs>
</svg>
