<svg width="222" height="69" viewBox="0 0 222 69" fill="none" xmlns="http://www.w3.org/2000/svg">
<path d="M41.1774 3.04642V4.06189C40.0266 4.09574 39.1634 4.23114 38.588 4.46808C38.0126 4.67118 37.6233 5.07737 37.4202 5.68665C37.2509 6.26208 37.1663 7.17601 37.1663 8.42842V33.6122C37.1663 34.8307 37.2509 35.7447 37.4202 36.3539C37.6233 36.9632 38.0126 37.3694 38.588 37.5725C39.1634 37.7756 40.0266 37.911 41.1774 37.9787V38.9942C40.3312 38.9265 39.2819 38.8926 38.0295 38.8926C36.7771 38.8588 35.5077 38.8419 34.2215 38.8419C32.7998 38.8419 31.4627 38.8588 30.2103 38.8926C28.9579 38.8926 27.9594 38.9265 27.2147 38.9942V37.9787C28.3656 37.911 29.2287 37.7756 29.8041 37.5725C30.4134 37.3694 30.8196 36.9632 31.0227 36.3539C31.2258 35.7447 31.3273 34.8307 31.3273 33.6122V5.83897L31.5812 5.94052L19.0909 39.1973H18.2785L5.17891 6.29593V32.292C5.17891 33.7137 5.28046 34.8307 5.48355 35.6431C5.68665 36.4216 6.12669 36.9801 6.80367 37.3186C7.48065 37.6571 8.51305 37.8772 9.90086 37.9787V38.9942C9.25773 38.9265 8.42843 38.8926 7.41295 38.8926C6.43133 38.8588 5.50048 38.8419 4.6204 38.8419C3.77418 38.8419 2.92795 38.8588 2.08172 38.8926C1.23549 38.8926 0.541586 38.9265 0 38.9942V37.9787C1.11702 37.8772 1.96325 37.6741 2.53868 37.3694C3.11412 37.0309 3.50338 36.4724 3.70648 35.6939C3.90957 34.9154 4.01112 33.8491 4.01112 32.4951V8.42842C4.01112 7.17601 3.90957 6.26208 3.70648 5.68665C3.50338 5.07737 3.11412 4.67118 2.53868 4.46808C1.96325 4.23114 1.11702 4.09574 0 4.06189V3.04642C0.541586 3.08027 1.23549 3.11412 2.08172 3.14797C2.92795 3.18181 3.77418 3.19874 4.6204 3.19874C5.60203 3.19874 6.58365 3.18181 7.56528 3.14797C8.58075 3.11412 9.4439 3.08027 10.1547 3.04642L21.3757 31.8859L20.411 32.5459L31.4289 3.19874C31.8689 3.19874 32.3259 3.19874 32.7998 3.19874C33.2737 3.19874 33.7476 3.19874 34.2215 3.19874C35.5077 3.19874 36.7771 3.18181 38.0295 3.14797C39.2819 3.11412 40.3312 3.08027 41.1774 3.04642Z" fill="black"/>
<path d="M50.6035 0C51.6528 0 52.5329 0.338491 53.2437 1.01547C53.9546 1.6586 54.31 2.47098 54.31 3.45261C54.31 4.43423 53.9546 5.26354 53.2437 5.94052C52.5329 6.58365 51.6528 6.90522 50.6035 6.90522C49.5542 6.90522 48.6741 6.58365 47.9633 5.94052C47.2524 5.26354 46.897 4.43423 46.897 3.45261C46.897 2.47098 47.2524 1.6586 47.9633 1.01547C48.6741 0.338491 49.5542 0 50.6035 0ZM53.6499 12.2365V34.2722C53.6499 35.6939 53.9207 36.6586 54.4623 37.1663C55.0377 37.6741 55.9855 37.9279 57.3056 37.9279V38.9942C56.7302 38.9603 55.8332 38.9265 54.6146 38.8926C53.4299 38.8249 52.2113 38.7911 50.9589 38.7911C49.7742 38.7911 48.5556 38.8249 47.3032 38.8926C46.0508 38.9265 45.1199 38.9603 44.5107 38.9942V37.9279C45.8308 37.9279 46.7616 37.6741 47.3032 37.1663C47.8786 36.6586 48.1664 35.6939 48.1664 34.2722V18.3293C48.1664 16.8061 47.9125 15.6891 47.4048 14.9782C46.897 14.2335 45.9323 13.8612 44.5107 13.8612V12.795C45.5938 12.8965 46.6431 12.9473 47.6586 12.9473C48.8095 12.9473 49.8757 12.8965 50.8574 12.795C51.8728 12.6596 52.8037 12.4734 53.6499 12.2365Z" fill="black"/>
<path d="M69.1767 12.0841C70.5307 12.0841 71.6985 12.3041 72.6801 12.7442C73.6956 13.1504 74.4233 13.5227 74.8634 13.8612C75.9804 14.7413 76.6743 14.1658 76.9451 12.1349H78.0621C77.9944 13.0827 77.9436 14.2335 77.9098 15.5875C77.876 16.9076 77.859 18.6678 77.859 20.868H76.742C76.5389 19.6156 76.1835 18.397 75.6758 17.2123C75.2019 16.0276 74.491 15.0459 73.5433 14.2674C72.6293 13.4889 71.4277 13.0996 69.9383 13.0996C68.8213 13.0996 67.8905 13.4212 67.1458 14.0643C66.4011 14.6736 66.0288 15.5875 66.0288 16.8061C66.0288 17.8216 66.3334 18.7016 66.9427 19.4463C67.552 20.191 68.3305 20.8849 69.2783 21.528C70.2599 22.1712 71.3092 22.8651 72.4262 23.6098C73.6787 24.456 74.7957 25.3022 75.7773 26.1484C76.7928 26.9608 77.5882 27.8747 78.1637 28.8902C78.773 29.9057 79.0776 31.0904 79.0776 32.4444C79.0776 34.0014 78.6545 35.3215 77.8083 36.4047C76.9959 37.4879 75.9127 38.3172 74.5587 38.8926C73.2048 39.4342 71.7154 39.705 70.0907 39.705C69.2783 39.705 68.5167 39.6204 67.8058 39.4511C67.095 39.3157 66.435 39.1296 65.8257 38.8926C65.4533 38.6895 65.081 38.4864 64.7086 38.2833C64.3702 38.0464 64.0317 37.8264 63.6932 37.6233C63.3547 37.3863 63.05 37.4202 62.7792 37.7248C62.5085 38.0295 62.3054 38.5711 62.17 39.3496H61.0529C61.1206 38.2664 61.1714 36.9463 61.2053 35.3892C61.2391 33.8322 61.256 31.7674 61.256 29.1949H62.3731C62.61 31.0566 62.9654 32.6982 63.4393 34.1199C63.9132 35.5416 64.6071 36.6586 65.521 37.471C66.4688 38.2495 67.7551 38.6388 69.3798 38.6388C70.023 38.6388 70.6661 38.5034 71.3092 38.2326C71.9524 37.9279 72.477 37.454 72.8832 36.8109C73.3232 36.1678 73.5433 35.3046 73.5433 34.2215C73.5433 32.7321 73.0186 31.5135 71.9693 30.5657C70.9538 29.5841 69.6337 28.5517 68.0089 27.4685C66.8581 26.6562 65.758 25.8607 64.7086 25.0822C63.6932 24.2698 62.8639 23.3728 62.2207 22.3912C61.5776 21.3757 61.256 20.1741 61.256 18.7863C61.256 17.263 61.6115 16.0106 62.3223 15.029C63.067 14.0474 64.0486 13.3196 65.2672 12.8457C66.4857 12.338 67.7889 12.0841 69.1767 12.0841Z" fill="black"/>
<path d="M89.8492 39.3496C88.4275 39.3496 87.2089 39.0788 86.1934 38.5372C85.178 37.9956 84.4164 37.2509 83.9086 36.3032C83.4009 35.3554 83.147 34.2722 83.147 33.0537C83.147 31.5643 83.4855 30.3626 84.1625 29.4487C84.8395 28.5009 85.7026 27.7393 86.752 27.1639C87.8351 26.5885 88.9691 26.1146 90.1538 25.7422C91.3724 25.3361 92.5063 24.9637 93.5556 24.6252C94.6388 24.2529 95.5189 23.8298 96.1959 23.3559C96.9067 22.882 97.2621 22.2558 97.2621 21.4773V18.0246C97.2621 16.8061 97.059 15.8414 96.6528 15.1305C96.2805 14.3859 95.7558 13.8612 95.0788 13.5566C94.4357 13.2519 93.6572 13.0996 92.7432 13.0996C91.9647 13.0996 91.1354 13.2181 90.2553 13.455C89.3753 13.6581 88.6814 14.0812 88.1736 14.7244C88.9183 14.9275 89.5276 15.3336 90.0015 15.9429C90.5092 16.5184 90.7631 17.2461 90.7631 18.1262C90.7631 19.074 90.4415 19.8187 89.7984 20.3602C89.1891 20.9018 88.4106 21.1726 87.4628 21.1726C86.4135 21.1726 85.6349 20.8511 85.1272 20.2079C84.6195 19.5309 84.3656 18.7524 84.3656 17.8723C84.3656 16.9584 84.5856 16.2137 85.0257 15.6383C85.4995 15.0629 86.1088 14.5213 86.8535 14.0135C87.6659 13.4719 88.6983 13.015 89.9507 12.6426C91.237 12.2703 92.6586 12.0841 94.2157 12.0841C95.6712 12.0841 96.9236 12.2534 97.9729 12.5919C99.0561 12.8965 99.9531 13.4042 100.664 14.1151C101.51 14.8936 102.069 15.8752 102.339 17.0599C102.61 18.2108 102.746 19.6156 102.746 21.2742V35.2877C102.746 36.1339 102.847 36.7432 103.05 37.1155C103.287 37.454 103.66 37.6233 104.167 37.6233C104.506 37.6233 104.827 37.5387 105.132 37.3694C105.471 37.2002 105.86 36.9463 106.3 36.6078L106.808 37.471C106.097 38.0464 105.369 38.5034 104.624 38.8419C103.913 39.1803 103 39.3496 101.883 39.3496C100.799 39.3496 99.9193 39.1803 99.2423 38.8419C98.5653 38.5034 98.0576 38.0126 97.7191 37.3694C97.4144 36.7263 97.2621 35.9308 97.2621 34.9831C96.382 36.4047 95.3327 37.4879 94.1141 38.2326C92.8956 38.9772 91.4739 39.3496 89.8492 39.3496ZM92.2863 36.9125C93.2341 36.9125 94.1141 36.6417 94.9265 36.1001C95.7727 35.5585 96.5513 34.7461 97.2621 33.6629V23.559C96.8898 24.1006 96.3482 24.5744 95.6374 24.9806C94.9265 25.353 94.1649 25.7422 93.3525 26.1484C92.5402 26.5546 91.7616 27.0285 91.0169 27.5701C90.3061 28.0778 89.7138 28.7379 89.2399 29.5503C88.766 30.3626 88.529 31.395 88.529 32.6475C88.529 33.9676 88.8675 35.0169 89.5445 35.7954C90.2215 36.5401 91.1354 36.9125 92.2863 36.9125Z" fill="black"/>
<path d="M108.934 3.04642C109.713 3.08027 110.711 3.11412 111.93 3.14797C113.182 3.18181 114.418 3.19874 115.636 3.19874C117.261 3.19874 118.801 3.18181 120.257 3.14797C121.746 3.11412 122.795 3.09719 123.405 3.09719C127.703 3.09719 130.919 4.02804 133.052 5.88975C135.184 7.75145 136.25 10.1547 136.25 13.0996C136.25 14.3182 136.03 15.6044 135.59 16.9584C135.184 18.2785 134.456 19.514 133.407 20.6649C132.358 21.7819 130.936 22.6958 129.142 23.4067C127.348 24.1175 125.063 24.4729 122.288 24.4729H117.312V23.4574H121.78C124.048 23.4574 125.774 23.0005 126.959 22.0865C128.177 21.1726 128.99 19.971 129.396 18.4816C129.836 16.9923 130.056 15.3844 130.056 13.6581C130.056 10.4424 129.48 8.03916 128.33 6.44825C127.179 4.85735 125.182 4.06189 122.338 4.06189C120.883 4.06189 119.918 4.34961 119.444 4.92505C119.004 5.50048 118.784 6.66827 118.784 8.42842V33.5106C118.784 34.763 118.92 35.7108 119.19 36.3539C119.461 36.9632 119.969 37.3694 120.714 37.5725C121.458 37.7756 122.558 37.8941 124.014 37.9279V38.9942C123.1 38.9265 121.915 38.8926 120.46 38.8926C119.004 38.8588 117.498 38.8419 115.941 38.8419C114.587 38.8419 113.284 38.8588 112.031 38.8926C110.813 38.8926 109.78 38.9265 108.934 38.9942V37.9787C110.085 37.911 110.948 37.7756 111.524 37.5725C112.099 37.3694 112.471 36.9632 112.641 36.3539C112.844 35.7447 112.945 34.8307 112.945 33.6122V8.42842C112.945 7.17601 112.844 6.26208 112.641 5.68665C112.471 5.07737 112.082 4.67118 111.473 4.46808C110.897 4.23114 110.051 4.09574 108.934 4.06189V3.04642Z" fill="black"/>
<path d="M145.68 39.3496C144.259 39.3496 143.04 39.0788 142.025 38.5372C141.009 37.9956 140.248 37.2509 139.74 36.3032C139.232 35.3554 138.978 34.2722 138.978 33.0537C138.978 31.5643 139.317 30.3626 139.994 29.4487C140.671 28.5009 141.534 27.7393 142.583 27.1639C143.666 26.5885 144.8 26.1146 145.985 25.7422C147.204 25.3361 148.337 24.9637 149.387 24.6252C150.47 24.2529 151.35 23.8298 152.027 23.3559C152.738 22.882 153.093 22.2558 153.093 21.4773V18.0246C153.093 16.8061 152.89 15.8414 152.484 15.1305C152.112 14.3859 151.587 13.8612 150.91 13.5566C150.267 13.2519 149.488 13.0996 148.574 13.0996C147.796 13.0996 146.967 13.2181 146.087 13.455C145.206 13.6581 144.513 14.0812 144.005 14.7244C144.749 14.9275 145.359 15.3336 145.833 15.9429C146.34 16.5184 146.594 17.2461 146.594 18.1262C146.594 19.074 146.273 19.8187 145.63 20.3602C145.02 20.9018 144.242 21.1726 143.294 21.1726C142.245 21.1726 141.466 20.8511 140.958 20.2079C140.451 19.5309 140.197 18.7524 140.197 17.8723C140.197 16.9584 140.417 16.2137 140.857 15.6383C141.331 15.0629 141.94 14.5213 142.685 14.0135C143.497 13.4719 144.529 13.015 145.782 12.6426C147.068 12.2703 148.49 12.0841 150.047 12.0841C151.502 12.0841 152.755 12.2534 153.804 12.5919C154.887 12.8965 155.784 13.4042 156.495 14.1151C157.341 14.8936 157.9 15.8752 158.171 17.0599C158.441 18.2108 158.577 19.6156 158.577 21.2742V35.2877C158.577 36.1339 158.678 36.7432 158.881 37.1155C159.118 37.454 159.491 37.6233 159.999 37.6233C160.337 37.6233 160.659 37.5387 160.963 37.3694C161.302 37.2002 161.691 36.9463 162.131 36.6078L162.639 37.471C161.928 38.0464 161.2 38.5034 160.455 38.8419C159.745 39.1803 158.831 39.3496 157.714 39.3496C156.631 39.3496 155.75 39.1803 155.073 38.8419C154.396 38.5034 153.889 38.0126 153.55 37.3694C153.246 36.7263 153.093 35.9308 153.093 34.9831C152.213 36.4047 151.164 37.4879 149.945 38.2326C148.727 38.9772 147.305 39.3496 145.68 39.3496ZM148.117 36.9125C149.065 36.9125 149.945 36.6417 150.758 36.1001C151.604 35.5585 152.382 34.7461 153.093 33.6629V23.559C152.721 24.1006 152.179 24.5744 151.469 24.9806C150.758 25.353 149.996 25.7422 149.184 26.1484C148.371 26.5546 147.593 27.0285 146.848 27.5701C146.137 28.0778 145.545 28.7379 145.071 29.5503C144.597 30.3626 144.36 31.395 144.36 32.6475C144.36 33.9676 144.699 35.0169 145.376 35.7954C146.053 36.5401 146.967 36.9125 148.117 36.9125Z" fill="black"/>
<path d="M180.505 12.0841C181.487 12.0841 182.316 12.2872 182.993 12.6934C183.704 13.0996 184.229 13.6243 184.567 14.2674C184.939 14.8767 185.126 15.5706 185.126 16.3491C185.126 17.3307 184.821 18.177 184.212 18.8878C183.636 19.5648 182.858 19.9033 181.876 19.9033C181.03 19.9033 180.302 19.6494 179.693 19.1417C179.117 18.6339 178.83 17.94 178.83 17.0599C178.83 16.3153 179.016 15.6891 179.388 15.1813C179.794 14.6397 180.251 14.2166 180.759 13.912C180.42 13.6412 180.014 13.5227 179.54 13.5566C178.626 13.5904 177.78 13.8951 177.002 14.4705C176.223 15.0121 175.563 15.7229 175.022 16.603C174.48 17.4492 174.057 18.3631 173.752 19.3448C173.448 20.3264 173.295 21.2403 173.295 22.0865V33.7645C173.295 35.4231 173.752 36.5401 174.666 37.1155C175.58 37.6571 176.849 37.9279 178.474 37.9279V38.9942C177.696 38.9603 176.579 38.9265 175.123 38.8926C173.701 38.8249 172.195 38.7911 170.604 38.7911C169.386 38.7911 168.167 38.8249 166.949 38.8926C165.73 38.9265 164.799 38.9603 164.156 38.9942V37.9279C165.476 37.9279 166.407 37.6741 166.949 37.1663C167.524 36.6586 167.812 35.6939 167.812 34.2722V18.3293C167.812 16.8061 167.558 15.6891 167.05 14.9782C166.542 14.2335 165.578 13.8612 164.156 13.8612V12.795C165.239 12.8965 166.288 12.9473 167.304 12.9473C168.455 12.9473 169.521 12.8965 170.503 12.795C171.518 12.6596 172.449 12.4734 173.295 12.2365V18.0754C173.701 17.0938 174.243 16.146 174.92 15.2321C175.597 14.3182 176.409 13.5735 177.357 12.9981C178.305 12.3888 179.354 12.0841 180.505 12.0841Z" fill="black"/>
<path d="M193.206 0C194.255 0 195.135 0.338491 195.846 1.01547C196.557 1.6586 196.913 2.47098 196.913 3.45261C196.913 4.43423 196.557 5.26354 195.846 5.94052C195.135 6.58365 194.255 6.90522 193.206 6.90522C192.157 6.90522 191.277 6.58365 190.566 5.94052C189.855 5.26354 189.5 4.43423 189.5 3.45261C189.5 2.47098 189.855 1.6586 190.566 1.01547C191.277 0.338491 192.157 0 193.206 0ZM196.252 12.2365V34.2722C196.252 35.6939 196.523 36.6586 197.065 37.1663C197.64 37.6741 198.588 37.9279 199.908 37.9279V38.9942C199.333 38.9603 198.436 38.9265 197.217 38.8926C196.032 38.8249 194.814 38.7911 193.561 38.7911C192.377 38.7911 191.158 38.8249 189.906 38.8926C188.653 38.9265 187.723 38.9603 187.113 38.9942V37.9279C188.433 37.9279 189.364 37.6741 189.906 37.1663C190.481 36.6586 190.769 35.6939 190.769 34.2722V18.3293C190.769 16.8061 190.515 15.6891 190.007 14.9782C189.5 14.2335 188.535 13.8612 187.113 13.8612V12.795C188.196 12.8965 189.246 12.9473 190.261 12.9473C191.412 12.9473 192.478 12.8965 193.46 12.795C194.475 12.6596 195.406 12.4734 196.252 12.2365Z" fill="black"/>
<path d="M211.779 12.0841C213.133 12.0841 214.301 12.3041 215.283 12.7442C216.298 13.1504 217.026 13.5227 217.466 13.8612C218.583 14.7413 219.277 14.1658 219.548 12.1349H220.665C220.597 13.0827 220.546 14.2335 220.512 15.5875C220.479 16.9076 220.462 18.6678 220.462 20.868H219.345C219.141 19.6156 218.786 18.397 218.278 17.2123C217.804 16.0276 217.094 15.0459 216.146 14.2674C215.232 13.4889 214.03 13.0996 212.541 13.0996C211.424 13.0996 210.493 13.4212 209.748 14.0643C209.004 14.6736 208.631 15.5875 208.631 16.8061C208.631 17.8216 208.936 18.7016 209.545 19.4463C210.155 20.191 210.933 20.8849 211.881 21.528C212.862 22.1712 213.912 22.8651 215.029 23.6098C216.281 24.456 217.398 25.3022 218.38 26.1484C219.395 26.9608 220.191 27.8747 220.766 28.8902C221.376 29.9057 221.68 31.0904 221.68 32.4444C221.68 34.0014 221.257 35.3215 220.411 36.4047C219.598 37.4879 218.515 38.3172 217.161 38.8926C215.807 39.4342 214.318 39.705 212.693 39.705C211.881 39.705 211.119 39.6204 210.408 39.4511C209.698 39.3157 209.038 39.1296 208.428 38.8926C208.056 38.6895 207.684 38.4864 207.311 38.2833C206.973 38.0464 206.634 37.8264 206.296 37.6233C205.957 37.3863 205.653 37.4202 205.382 37.7248C205.111 38.0295 204.908 38.5711 204.773 39.3496H203.656C203.723 38.2664 203.774 36.9463 203.808 35.3892C203.842 33.8322 203.859 31.7674 203.859 29.1949H204.976C205.213 31.0566 205.568 32.6982 206.042 34.1199C206.516 35.5416 207.21 36.6586 208.124 37.471C209.071 38.2495 210.358 38.6388 211.982 38.6388C212.626 38.6388 213.269 38.5034 213.912 38.2326C214.555 37.9279 215.08 37.454 215.486 36.8109C215.926 36.1678 216.146 35.3046 216.146 34.2215C216.146 32.7321 215.621 31.5135 214.572 30.5657C213.556 29.5841 212.236 28.5517 210.612 27.4685C209.461 26.6562 208.361 25.8607 207.311 25.0822C206.296 24.2698 205.466 23.3728 204.823 22.3912C204.18 21.3757 203.859 20.1741 203.859 18.7863C203.859 17.263 204.214 16.0106 204.925 15.029C205.67 14.0474 206.651 13.3196 207.87 12.8457C209.088 12.338 210.391 12.0841 211.779 12.0841Z" fill="black"/>
<path d="M0.26709 67.8826V52.563H2.06168L8.93363 64.1403H7.97068L14.7551 52.563H16.5497L16.5716 67.8826H14.4706L14.4487 55.8677H14.9521L8.91174 66.0224H7.90502L1.82094 55.8677H2.36807V67.8826H0.26709Z" fill="black"/>
<path d="M18.8493 67.8826L25.7869 52.563H27.9536L34.9131 67.8826H32.6151L26.4216 53.7886H27.297L21.1035 67.8826H18.8493ZM21.8038 64.0527L22.3947 62.3019H31.0175L31.6522 64.0527H21.8038Z" fill="black"/>
<path d="M39.1243 64.184L39.0148 61.514L47.7033 52.563H50.1982L43.4794 59.6538L42.2538 61.0107L39.1243 64.184ZM37.1984 67.8826V52.563H39.3869V67.8826H37.1984ZM48.0534 67.8826L41.7724 60.573L43.2387 58.9535L50.614 67.8826H48.0534Z" fill="black"/>
<path d="M54.9199 59.1723H62.7986V61.0326H54.9199V59.1723ZM55.1169 65.9786H64.046V67.8826H52.9283V52.563H63.7396V54.467H55.1169V65.9786Z" fill="black"/>
<path d="M79.8138 68.0577C77.8004 68.0577 76.2173 67.4814 75.0647 66.3288C73.9121 65.1762 73.3358 63.491 73.3358 61.2733V52.563H75.5243V61.1858C75.5243 62.8928 75.8964 64.1403 76.6404 64.9281C77.3991 65.716 78.4642 66.1099 79.8357 66.1099C81.2217 66.1099 82.2868 65.716 83.0309 64.9281C83.7896 64.1403 84.169 62.8928 84.169 61.1858V52.563H86.2918V61.2733C86.2918 63.491 85.7155 65.1762 84.5629 66.3288C83.4249 67.4814 81.8418 68.0577 79.8138 68.0577Z" fill="black"/>
<path d="M90.7786 67.8826V52.563H96.7533C98.0956 52.563 99.2409 52.7746 100.189 53.1977C101.138 53.6208 101.867 54.2336 102.378 55.036C102.888 55.8385 103.144 56.7941 103.144 57.903C103.144 59.0118 102.888 59.9675 102.378 60.77C101.867 61.5578 101.138 62.1706 100.189 62.6083C99.2409 63.0314 98.0956 63.243 96.7533 63.243H91.9823L92.9671 62.2144V67.8826H90.7786ZM92.9671 62.4332L91.9823 61.339H96.6876C98.0883 61.339 99.1461 61.0399 99.861 60.4417C100.59 59.8435 100.955 58.9973 100.955 57.903C100.955 56.8087 100.59 55.9625 99.861 55.3643C99.1461 54.7661 98.0883 54.467 96.6876 54.467H91.9823L92.9671 53.3728V62.4332Z" fill="black"/>
</svg>
