<svg width="144" height="24" viewBox="0 0 144 24" fill="none" xmlns="http://www.w3.org/2000/svg">
<path d="M68.7941 5.11111C68.7941 4.09445 69.1846 3.11942 69.8795 2.40054C70.5745 1.68165 71.5171 1.27778 72.5 1.27778C73.4829 1.27778 74.4255 1.68165 75.1205 2.40054C75.8154 3.11942 76.2059 4.09445 76.2059 5.11111C76.2059 6.12777 75.8154 7.1028 75.1205 7.82169C74.4255 8.54058 73.4829 8.94444 72.5 8.94444C71.5171 8.94444 70.5745 8.54058 69.8795 7.82169C69.1846 7.1028 68.7941 6.12777 68.7941 5.11111ZM72.5 0C71.1895 0 69.9327 0.538491 69.0061 1.49701C68.0794 2.45553 67.5588 3.75556 67.5588 5.11111C67.5588 6.46666 68.0794 7.76669 69.0061 8.72521C69.9327 9.68373 71.1895 10.2222 72.5 10.2222C73.8105 10.2222 75.0673 9.68373 75.9939 8.72521C76.9206 7.76669 77.4412 6.46666 77.4412 5.11111C77.4412 3.75556 76.9206 2.45553 75.9939 1.49701C75.0673 0.538491 73.8105 0 72.5 0ZM79.3929 15.525C80.7765 16.5728 81.6535 18.3872 81.7524 21.7222H63.2476C63.3465 18.4 64.2235 16.5728 65.5947 15.525C67.1388 14.375 69.4118 14.0556 72.5 14.0556C75.5882 14.0556 77.8735 14.3878 79.3929 15.525ZM72.5 12.7778C69.4118 12.7778 66.7559 13.0844 64.8782 14.5028C62.9512 15.9467 62 18.4383 62 22.3611V23H83V22.3611C83 18.4383 82.0488 15.9467 80.1218 14.5028C78.2441 13.0972 75.5882 12.7778 72.5 12.7778Z" fill="black"/>
<path fill-rule="evenodd" clip-rule="evenodd" d="M15.2894 16.1896C13.6681 17.6024 11.5485 18.4581 9.22903 18.4581C4.13198 18.4581 0 14.3261 0 9.22903C0 4.13198 4.13198 0 9.22903 0C14.3261 0 18.4581 4.13198 18.4581 9.22903C18.4581 11.5485 17.6024 13.6681 16.1896 15.2894L24 23.0999L23.0999 24L15.2894 16.1896ZM17.1851 9.22903C17.1851 13.623 13.623 17.1851 9.22903 17.1851C4.83502 17.1851 1.27297 13.623 1.27297 9.22903C1.27297 4.83502 4.83502 1.27297 9.22903 1.27297C13.623 1.27297 17.1851 4.83502 17.1851 9.22903Z" fill="black"/>
<path fill-rule="evenodd" clip-rule="evenodd" d="M126.989 1H122.989L122.015 16.0649C121.956 16.953 122.075 17.844 122.366 18.6826C122.657 19.5213 123.112 20.2896 123.705 20.94C124.297 21.5903 125.013 22.1088 125.809 22.4632C126.605 22.8176 127.463 23.0003 128.33 23H137.671C138.537 23.0002 139.394 22.8178 140.189 22.4642C140.984 22.1106 141.699 21.5933 142.291 20.9444C142.883 20.2955 143.339 19.5287 143.631 18.6916C143.922 17.8545 144.043 16.9649 143.986 16.0779L142.999 1H134.994H126.989ZM124.179 2.2987H126.989V3.11688C126.989 3.92699 127.144 4.72916 127.446 5.47759C127.748 6.22603 128.191 6.90608 128.749 7.47891C129.308 8.05173 129.97 8.50613 130.7 8.81614C131.429 9.12615 132.211 9.28571 133 9.28571C133.79 9.28571 134.572 9.12615 135.301 8.81614C136.03 8.50613 136.693 8.05173 137.251 7.47891C137.81 6.90608 138.252 6.22603 138.555 5.47759C138.857 4.72916 139.012 3.92699 139.012 3.11688V2.2987H141.822L142.733 16.1558C142.78 16.8669 142.684 17.5803 142.451 18.2517C142.217 18.923 141.852 19.5378 141.377 20.058C140.902 20.5781 140.328 20.9924 139.69 21.2752C139.053 21.5579 138.365 21.7029 137.671 21.7013H128.33C127.637 21.7011 126.951 21.5548 126.314 21.2713C125.678 20.9878 125.106 20.5732 124.632 20.0532C124.159 19.5333 123.794 18.919 123.562 18.2486C123.329 17.5782 123.233 16.8659 123.28 16.1558L124.179 2.2987ZM128.254 2.2987H137.747V3.11688C137.747 4.40852 137.247 5.64726 136.356 6.56058C135.466 7.47391 134.259 7.98701 133 7.98701C131.742 7.98701 130.534 7.47391 129.644 6.56058C128.754 5.64726 128.254 4.40852 128.254 3.11688V2.2987Z" fill="black"/>
</svg>
